<svg version="1.1" id="Layer_1" xmlns="http://www.w3.org/2000/svg" xmlns:xlink="http://www.w3.org/1999/xlink" x="0px" y="0px"
	 width="100%" viewBox="0 0 897 342" enable-background="new 0 0 897 342" xml:space="preserve">
<path fill="#FEFFFE" opacity="1.000000" stroke="none" 
	d="
M570.000000,343.000000 
	C380.000000,343.000000 190.500000,343.000000 1.000000,343.000000 
	C1.000000,229.000000 1.000000,115.000000 1.000000,1.000000 
	C300.000000,1.000000 599.000000,1.000000 898.000000,1.000000 
	C898.000000,115.000000 898.000000,229.000000 898.000000,343.000000 
	C788.833313,343.000000 679.666687,343.000000 570.000000,343.000000 
M46.064407,213.018112 
	C44.370777,213.602936 42.513874,213.923203 41.026073,214.841507 
	C39.282093,215.917892 37.859261,217.514618 36.092754,219.717422 
	C35.872837,221.699280 35.866371,223.733307 35.396801,225.654129 
	C33.120918,234.963791 30.543886,244.204514 28.504848,253.563629 
	C28.065216,255.581512 29.406469,257.987396 29.927397,260.214539 
	C30.439699,260.162079 30.952000,260.109619 31.464302,260.057159 
	C31.111916,261.677460 30.697298,263.287109 30.417046,264.919800 
	C28.280134,277.369019 27.826767,289.775818 31.958683,301.942078 
	C36.269409,314.634857 41.464001,318.275208 54.785141,318.280640 
	C56.451305,318.281342 58.117477,318.284424 59.783627,318.279449 
	C67.028740,318.257843 70.071899,316.307770 72.674744,309.629730 
	C73.695427,307.010986 74.581078,304.266663 74.997543,301.499634 
	C76.076088,294.333649 76.859566,287.123260 77.771126,279.848602 
	C88.172577,279.313812 98.585487,278.778442 108.967171,278.244659 
	C109.143288,282.047913 109.179642,285.313507 109.465904,288.557037 
	C110.382317,298.940491 113.005104,308.897552 119.796440,316.976776 
	C132.248917,331.790680 148.703644,337.235840 167.626129,335.525360 
	C183.029419,334.132935 199.895660,319.918915 204.175827,305.316772 
	C205.996643,299.104919 207.969803,292.937683 209.956757,286.480377 
	C214.711060,286.480377 219.780121,287.080200 224.638641,286.325195 
	C230.424942,285.426056 235.401779,288.493866 238.813324,291.102386 
	C244.551682,295.490051 250.217514,297.274689 256.973969,297.192444 
	C260.278625,297.152191 262.011017,298.465973 263.430481,301.754486 
	C274.514069,327.431702 305.030182,338.517303 327.982330,325.252472 
	C339.609344,318.532867 346.181763,307.952911 349.186218,295.097229 
	C351.863037,283.643524 350.397400,272.583557 344.541412,261.521667 
	C347.304749,261.887787 349.257050,262.140350 351.207550,262.405884 
	C363.354736,264.059479 363.241974,264.051117 364.246674,251.880463 
	C364.511780,248.669067 363.681458,247.352509 360.436035,247.023666 
	C354.033569,246.374954 347.663269,245.408722 340.415863,244.460831 
	C342.069427,243.191757 343.034576,242.451035 344.395325,241.696152 
	C344.911316,240.882538 345.427307,240.068924 346.337555,238.470062 
	C346.822998,237.006683 347.308411,235.543320 347.463257,235.076538 
	C351.157684,234.546219 354.033783,234.133362 357.514526,233.633713 
	C355.736023,226.695282 354.257843,220.619568 352.555023,214.607468 
	C352.290009,213.671707 351.131836,212.709961 350.159729,212.304718 
	C347.007385,210.990570 343.749512,209.929688 340.822723,208.031418 
	C341.876465,203.335876 342.723358,198.579819 344.071472,193.970383 
	C344.742767,191.675018 346.332397,189.648239 347.506592,187.499969 
	C348.144928,187.687531 348.783234,187.875092 349.421539,188.062653 
	C349.421539,173.972015 349.421539,159.881393 349.421539,145.790756 
	C348.733154,145.971924 348.044739,146.153091 347.356354,146.334259 
	C346.277527,144.322403 344.842957,142.416931 344.202148,140.274094 
	C343.206940,136.946274 343.009338,133.380249 342.018158,130.050827 
	C339.460632,121.460114 336.653534,112.943695 333.841461,104.067261 
	C334.326050,103.652527 335.256927,102.855843 336.973022,101.387123 
	C329.188904,89.118225 321.487274,76.979294 313.785645,64.840370 
	C313.188232,65.533905 312.590820,66.227448 311.993378,66.920982 
	C310.326416,66.150467 308.382080,65.704826 307.037445,64.556786 
	C298.195923,57.008022 289.429779,49.367798 280.784149,41.595974 
	C279.397064,40.349075 278.736969,38.293404 277.740814,36.611614 
	C278.239410,36.012245 278.738037,35.412880 279.236633,34.813511 
	C266.315002,28.841513 253.393372,22.869514 240.471741,16.897516 
	C240.322571,17.639921 240.173401,18.382328 240.024216,19.124733 
	C238.075333,19.397188 236.067825,20.116007 234.187134,19.869078 
	C222.674927,18.357538 211.178513,16.708885 199.710205,14.894872 
	C197.626724,14.565313 195.697418,13.260945 193.696945,12.406590 
	C193.771027,11.631390 193.845123,10.856189 193.919220,10.080989 
	C179.677460,12.137731 165.435699,14.194472 151.193939,16.251215 
	C151.542786,17.001722 151.891632,17.752230 152.240463,18.502739 
	C151.001862,19.681606 149.961502,21.283724 148.492920,21.971624 
	C137.826019,26.968134 127.107193,31.859146 116.312363,36.571835 
	C114.554092,37.339443 112.339088,37.060852 110.335190,37.265823 
	C110.040428,36.684216 109.745667,36.102612 109.450912,35.521008 
	C98.661293,44.856899 87.871666,54.192791 76.881844,63.701912 
	C78.286667,65.279572 79.093094,66.185211 79.404816,66.535286 
	C71.443047,78.896027 63.734276,90.863976 55.959476,102.934441 
	C55.347836,102.738068 54.319344,102.407860 51.924526,101.638985 
	C48.283577,115.115280 44.713440,128.213287 41.268562,141.344162 
	C41.041306,142.210403 41.703110,143.352325 42.068359,144.321976 
	C42.674244,145.930481 43.926598,147.496063 43.947159,149.092072 
	C44.086205,159.887131 44.063030,170.686981 43.875511,181.481537 
	C43.831310,184.025681 46.109715,187.618805 41.437378,188.835983 
	C41.172634,188.904953 41.129124,190.691193 41.343266,191.592499 
	C42.991394,198.529343 44.728691,205.445007 46.064407,213.018112 
M657.471680,254.214996 
	C657.471680,251.946640 657.471680,249.678284 657.471680,247.529358 
	C649.653809,247.529358 642.563232,247.529358 635.305786,247.529358 
	C635.305786,251.153503 635.305786,254.444809 635.305786,257.698914 
	C639.379944,259.100616 640.404358,264.324280 638.061768,272.160980 
	C633.271423,264.682495 628.653442,257.388794 623.920715,250.170380 
	C623.162720,249.014343 621.918091,247.385651 620.852722,247.350235 
	C613.437195,247.103775 606.009705,247.220062 597.905396,247.220062 
	C598.340454,251.324753 597.789307,257.020996 599.225525,257.576202 
	C603.112671,259.078888 602.025818,261.537354 602.089172,263.890015 
	C602.214783,268.550323 602.398438,273.237854 602.033508,277.872833 
	C601.777283,281.127777 604.424805,285.717041 598.679871,287.130859 
	C598.410156,287.197205 598.299500,288.324921 598.289917,288.960999 
	C598.248413,291.716736 598.272095,294.473450 598.272095,297.168457 
	C606.215210,297.168457 613.430115,297.168457 621.352966,297.168457 
	C619.486816,292.911835 624.112610,287.286102 617.337891,285.642395 
	C617.337891,280.194519 617.337891,275.144714 617.337891,268.648163 
	C623.335083,278.059235 628.540100,286.295837 633.841614,294.469879 
	C634.604065,295.645447 635.787781,297.339508 636.850586,297.395844 
	C642.405090,297.690125 647.983398,297.533234 653.731384,297.533234 
	C653.731384,286.366028 653.669312,276.045868 653.769104,265.727295 
	C653.799194,262.612396 652.244507,258.654327 657.234375,257.458984 
	C657.488586,257.398071 657.400085,255.906570 657.471680,254.214996 
M807.757996,285.538025 
	C807.757996,289.476379 807.757996,293.414703 807.757996,297.254974 
	C814.843140,297.254974 821.277954,297.254974 827.847412,297.254974 
	C828.674316,288.204163 825.523315,280.834991 820.458496,273.480347 
	C820.386414,273.561035 820.769043,273.061584 821.221985,272.637177 
	C826.138733,268.030884 826.119934,262.253571 824.635681,256.428619 
	C823.239929,250.950714 818.989197,247.937531 813.632324,247.765442 
	C802.078796,247.394287 790.505127,247.651337 778.218506,247.651337 
	C780.086609,251.491409 775.318359,256.700958 781.886536,259.048157 
	C782.299377,259.195648 782.253296,260.896637 782.257324,261.875580 
	C782.286316,268.868225 782.285645,275.861145 782.258362,282.853790 
	C782.254517,283.834595 782.335205,285.516693 781.902710,285.689850 
	C775.278259,288.341583 779.897827,293.400635 778.491577,297.261169 
	C787.548340,297.261169 795.794556,297.261169 804.249329,297.261169 
	C804.249329,293.682190 804.249329,290.408447 804.249329,286.916107 
	C796.718689,285.805878 801.507446,280.505402 800.313904,277.033386 
	C806.627808,276.444031 807.640930,277.553162 807.757996,285.538025 
M479.617950,277.694519 
	C480.121826,279.550079 480.974518,281.389648 481.060577,283.264404 
	C481.271729,287.865082 481.129547,292.481995 481.129547,297.320312 
	C488.097290,297.320312 494.509430,297.320312 501.294678,297.320312 
	C502.187531,288.168610 498.979980,280.702698 493.699890,273.568787 
	C493.871582,273.409912 494.354523,272.984528 494.813782,272.534943 
	C499.405609,268.040039 499.708588,262.577454 498.233978,256.793671 
	C496.824799,251.266586 492.873260,248.040833 487.492401,247.855927 
	C475.760406,247.452835 464.004974,247.731354 451.512451,247.731354 
	C453.748871,251.459961 448.588806,256.960205 455.497223,259.032074 
	C455.829651,259.131775 455.869171,260.550079 455.871735,261.354919 
	C455.897736,269.506042 455.887634,277.657318 455.887634,285.604767 
	C448.644257,288.021759 453.491730,293.341095 451.828308,297.178040 
	C461.001251,297.178040 469.381073,297.178040 477.771118,297.178040 
	C477.771118,293.501648 477.771118,290.220612 477.771118,287.017120 
	C470.694336,285.295990 475.137634,280.260437 473.503235,276.082764 
	C475.999908,276.614563 477.416138,276.916229 479.617950,277.694519 
M595.244446,287.471680 
	C595.244446,283.856018 595.244446,280.240356 595.244446,276.642181 
	C590.235901,276.642181 585.808350,276.642181 581.212952,276.642181 
	C581.056641,280.002625 580.913452,283.082794 580.773987,286.081207 
	C578.091553,286.081207 575.832825,286.081207 573.510742,286.081207 
	C573.510742,282.497986 573.510742,279.251709 573.510742,275.806183 
	C575.335510,275.538239 576.930542,275.304016 578.546814,275.066681 
	C578.546814,272.833527 578.546814,270.768005 578.546814,268.664856 
	C576.653137,268.357635 575.066406,268.100189 573.541382,267.852753 
	C573.541382,264.672729 573.541382,261.766022 573.541382,258.589294 
	C576.065369,258.589294 578.294861,258.589294 580.770447,258.589294 
	C580.929199,261.491455 581.079468,264.238922 581.238831,267.152252 
	C585.939392,267.152252 590.365234,267.152252 594.871521,267.152252 
	C594.871521,260.425018 594.871521,253.907211 594.871521,247.556503 
	C580.286682,247.556503 566.077515,247.556503 551.228882,247.556503 
	C551.603882,251.320511 551.007935,257.031860 552.454773,257.607361 
	C556.356934,259.159454 555.158875,261.682770 555.217102,263.970001 
	C555.373718,270.121552 555.288513,276.279785 555.254272,282.435150 
	C555.247925,283.579803 555.367432,285.534729 554.861084,285.744354 
	C548.294983,288.462494 552.874023,293.450226 551.545593,297.212158 
	C566.553528,297.212158 580.762878,297.212158 595.244385,297.212158 
	C595.244385,294.044525 595.244385,291.235321 595.244446,287.471680 
M508.003510,271.508362 
	C506.415771,276.777771 511.643097,283.621704 504.299011,287.602753 
	C504.054840,287.735107 504.139526,288.545563 504.136932,289.040283 
	C504.123169,291.680145 504.130432,294.320129 504.130432,297.265442 
	C518.884521,297.265442 533.278198,297.265442 547.676880,297.265442 
	C547.676880,290.224457 547.676880,283.487518 547.676880,276.627075 
	C542.951782,276.627075 538.550476,276.627075 533.592834,276.627075 
	C533.592834,279.949677 533.592834,283.012665 533.592834,286.082520 
	C530.791992,286.082520 528.562073,286.082520 526.183960,286.082520 
	C526.183960,282.475922 526.183960,279.201782 526.183960,275.767639 
	C527.941833,275.527222 529.536316,275.309174 531.128784,275.091400 
	C531.128784,272.769928 531.128784,270.695007 531.128784,268.616333 
	C529.243286,268.353729 527.692139,268.137665 526.253113,267.937225 
	C526.253113,264.563232 526.253113,261.615356 526.253113,258.611023 
	C528.761414,258.611023 531.009827,258.611023 533.486389,258.611023 
	C533.671814,261.636780 533.839844,264.377869 534.007507,267.113525 
	C538.783081,267.113525 543.228516,267.113525 547.699829,267.113525 
	C547.699829,260.451233 547.699829,254.037781 547.699829,247.444687 
	C533.161072,247.444687 518.919739,247.444687 503.889557,247.444687 
	C505.549011,251.521713 500.851349,256.866608 508.003510,259.121490 
	C508.003510,262.868896 508.003510,266.692535 508.003510,271.508362 
M420.725037,266.600342 
	C420.774048,264.769714 420.268341,262.654694 421.021667,261.185120 
	C421.843323,259.582275 423.794464,257.638947 425.322144,257.578278 
	C426.824463,257.518616 428.601349,259.462799 429.881561,260.869873 
	C430.488220,261.536652 430.218079,263.001099 430.326843,263.945190 
	C435.683899,263.945190 440.738129,263.945190 445.992096,263.945190 
	C445.992096,260.569244 445.715546,257.545837 446.061554,254.595444 
	C446.502136,250.838120 444.935455,248.671570 441.425201,248.407974 
	C433.380310,247.803879 425.178894,246.458038 417.280975,247.408020 
	C406.370667,248.720322 400.897064,257.645477 400.767273,271.236023 
	C400.620789,286.573456 405.765259,294.988739 416.956543,297.583008 
	C425.472046,299.556976 433.810242,298.487213 442.106384,296.122406 
	C445.218933,295.235168 446.315979,293.531555 446.060211,290.345947 
	C445.850098,287.729218 445.246887,283.529449 446.540009,282.692749 
	C451.511536,279.475800 448.365021,275.601868 449.058624,272.058899 
	C441.318146,272.058899 434.233856,272.058899 426.711395,272.058899 
	C427.787262,275.797577 424.220398,280.289429 429.720215,282.485992 
	C429.035919,283.998505 428.760620,286.158661 427.588562,286.898743 
	C424.425598,288.896057 420.973022,286.650757 420.805878,282.568024 
	C420.601501,277.577118 420.736633,272.572296 420.725037,266.600342 
M737.796143,253.155334 
	C735.444824,261.658173 733.097839,270.162201 730.739319,278.663055 
	C730.116516,280.907959 730.170715,284.096130 728.684814,285.206970 
	C723.903564,288.781555 726.862427,293.141876 726.065308,297.299438 
	C733.547058,297.299438 740.476501,297.299438 747.944702,297.299438 
	C746.874634,292.991028 750.683105,287.817688 744.318237,285.347992 
	C745.218262,282.067047 750.463501,279.795715 753.009277,281.826019 
	C753.880920,282.521149 754.314575,285.470673 754.105957,285.567078 
	C748.140015,288.323456 752.332336,293.281097 750.769409,297.249817 
	C759.563599,297.249817 767.637573,297.249817 775.394043,297.249817 
	C777.762695,291.232300 773.930420,286.987335 772.361206,282.074860 
	C768.724121,270.688568 765.860352,259.055267 762.655701,247.422607 
	C754.764038,247.422607 747.150818,247.422607 739.451050,247.422607 
	C738.922668,249.189346 738.448547,250.774597 737.796143,253.155334 
M830.263550,293.464447 
	C830.978821,294.831665 831.672668,297.377655 832.412476,297.391052 
	C845.684937,297.631775 858.963074,297.566071 872.444336,297.566071 
	C872.444336,291.969299 872.444336,286.918488 872.444336,281.636261 
	C868.236877,281.636261 864.322327,281.636261 860.311829,281.636261 
	C860.071289,283.306854 859.867004,284.725555 859.666748,286.116028 
	C857.318604,286.116028 855.250183,286.116028 852.300232,286.116028 
	C858.028748,277.359467 863.147766,269.048798 868.786926,261.107483 
	C871.871826,256.763245 872.244324,252.413162 871.332458,247.621201 
	C857.867432,247.621201 844.674988,247.621201 831.505127,247.621201 
	C831.505127,252.991104 831.505127,257.926971 831.505127,263.100647 
	C835.687500,263.100647 839.631653,263.100647 843.727234,263.100647 
	C844.037720,261.527405 844.338196,260.005096 844.692932,258.207703 
	C846.378662,258.406464 847.727173,258.565491 849.100464,258.727417 
	C848.990051,259.496490 849.043030,259.876160 848.885193,260.118530 
	C843.435547,268.486145 837.845276,276.765991 832.584167,285.250000 
	C831.270691,287.368195 831.008850,290.138519 830.263550,293.464447 
M715.510864,278.359955 
	C712.933838,278.359955 710.356812,278.359955 707.751831,278.359955 
	C707.594666,280.643036 707.972351,282.429260 707.274475,283.539459 
	C706.299866,285.090149 704.508179,287.136261 703.092163,287.116302 
	C701.680176,287.096405 699.167236,284.848114 699.095215,283.474243 
	C698.703857,276.004486 698.733154,268.493896 699.100342,261.021057 
	C699.163879,259.729279 701.494324,257.648865 702.868347,257.572876 
	C704.261536,257.495850 706.260132,259.166748 707.084290,260.596283 
	C707.904724,262.019287 707.595398,264.093628 707.795166,266.014526 
	C712.866333,266.014526 717.748596,266.014526 722.870117,266.014526 
	C722.870117,261.694305 723.155701,257.677612 722.728027,253.738358 
	C722.559570,252.186874 721.114075,250.070129 719.711853,249.471558 
	C711.045532,245.771927 702.027771,244.906021 692.933533,247.744690 
	C683.567810,250.668137 678.906250,258.719269 678.755493,271.615173 
	C678.595459,285.300964 683.018372,293.702087 692.432373,296.833801 
	C701.657532,299.902649 710.841492,299.021301 719.757812,295.460938 
	C721.027954,294.953735 722.621460,293.353333 722.718079,292.150635 
	C723.072632,287.738922 722.858643,283.281525 722.858643,278.360016 
	C720.352661,278.360016 718.393066,278.360016 715.510864,278.359955 
z"/>
<path fill="#293302" opacity="1.000000" stroke="none" 
	d="
M340.532257,208.771271 
	C343.749512,209.929688 347.007385,210.990570 350.159729,212.304718 
	C351.131836,212.709961 352.290009,213.671707 352.555023,214.607468 
	C354.257843,220.619568 355.736023,226.695282 357.514526,233.633713 
	C354.033783,234.133362 351.157684,234.546219 347.463257,235.076538 
	C347.308411,235.543320 346.822998,237.006683 346.134064,238.301010 
	C345.904877,235.324539 346.615570,232.219925 345.637604,229.796844 
	C344.736115,227.563202 342.028229,224.640945 340.102844,224.631256 
	C338.119965,224.621246 335.120056,227.394974 334.309967,229.593552 
	C331.448639,237.359329 335.839783,242.534012 343.999695,241.710327 
	C343.034576,242.451035 342.069427,243.191757 340.415863,244.460831 
	C347.663269,245.408722 354.033569,246.374954 360.436035,247.023666 
	C363.681458,247.352509 364.511780,248.669067 364.246674,251.880463 
	C363.241974,264.051117 363.354736,264.059479 351.207550,262.405884 
	C349.257050,262.140350 347.304749,261.887787 344.541412,261.521667 
	C350.397400,272.583557 351.863037,283.643524 349.186218,295.097229 
	C346.181763,307.952911 339.609344,318.532867 327.982330,325.252472 
	C305.030182,338.517303 274.514069,327.431702 263.430481,301.754486 
	C262.011017,298.465973 260.278625,297.152191 256.973969,297.192444 
	C250.217514,297.274689 244.551682,295.490051 238.813324,291.102386 
	C235.401779,288.493866 230.424942,285.426056 224.638641,286.325195 
	C219.780121,287.080200 214.711060,286.480377 209.956757,286.480377 
	C207.969803,292.937683 205.996643,299.104919 204.175827,305.316772 
	C199.895660,319.918915 183.029419,334.132935 167.626129,335.525360 
	C148.703644,337.235840 132.248917,331.790680 119.796440,316.976776 
	C113.005104,308.897552 110.382317,298.940491 109.465904,288.557037 
	C109.179642,285.313507 109.143288,282.047913 108.967171,278.244659 
	C98.585487,278.778442 88.172577,279.313812 77.771126,279.848602 
	C76.859566,287.123260 76.076088,294.333649 74.997543,301.499634 
	C74.581078,304.266663 73.695427,307.010986 72.674744,309.629730 
	C70.071899,316.307770 67.028740,318.257843 59.783627,318.279449 
	C58.117477,318.284424 56.451305,318.281342 54.785141,318.280640 
	C41.464001,318.275208 36.269409,314.634857 31.958683,301.942078 
	C27.826767,289.775818 28.280134,277.369019 30.417046,264.919800 
	C30.697298,263.287109 31.111916,261.677460 31.464302,260.057159 
	C30.952000,260.109619 30.439699,260.162079 29.927397,260.214539 
	C29.406469,257.987396 28.065216,255.581512 28.504848,253.563629 
	C30.543886,244.204514 33.120918,234.963791 35.396801,225.654129 
	C35.866371,223.733307 35.872837,221.699280 36.573135,219.335938 
	C44.676361,217.008667 52.276112,214.964020 59.935509,213.174713 
	C62.373131,212.605270 64.969360,212.714767 67.808594,212.488434 
	C67.861671,212.099899 67.993736,211.133087 68.530319,210.143860 
	C75.876091,207.776718 84.042816,208.379395 89.329269,201.984955 
	C83.700485,202.862732 78.249580,204.199173 72.976440,206.043808 
	C70.821449,206.797653 69.051270,208.651520 66.693535,210.015320 
	C64.791138,209.630722 63.301224,209.235748 61.871872,208.481628 
	C61.906612,207.396027 61.880787,206.669586 62.168331,205.790710 
	C63.046562,204.116043 63.611431,202.593811 64.497261,200.841125 
	C65.215431,198.902588 65.867790,197.208267 65.960609,195.483810 
	C66.209969,190.851318 65.975853,186.184250 66.385780,181.571075 
	C66.924126,175.512894 67.895012,169.493134 68.766052,162.794113 
	C62.965919,163.791962 59.678795,165.911301 59.498272,170.528229 
	C59.320564,175.073044 60.041496,179.653000 60.027847,184.152908 
	C59.458633,184.058212 59.229691,184.028152 58.761028,183.790405 
	C57.505749,192.171417 56.474648,200.758408 55.538288,209.355728 
	C55.504997,209.661392 56.409527,210.069214 56.790581,210.755920 
	C54.252689,211.969070 51.838009,213.002167 49.322617,213.634872 
	C48.727386,213.784592 47.793861,212.589386 47.113800,211.613586 
	C47.476830,209.591446 47.827118,207.977264 47.993660,206.344315 
	C49.242897,194.095657 50.526764,181.849808 51.653320,169.589615 
	C52.317474,162.361740 56.245560,157.739883 62.549553,154.647537 
	C72.868095,149.585892 83.101128,144.349945 93.419113,139.287140 
	C97.017059,137.521713 100.999191,136.270096 100.243889,130.952744 
	C100.210991,130.721115 101.419235,130.313202 102.073669,130.421875 
	C103.533813,143.908951 104.949364,156.963821 106.412804,170.013306 
	C107.339348,178.275299 108.248779,186.541306 109.367592,194.778122 
	C109.635521,196.750610 109.144417,199.984161 113.505272,199.109528 
	C123.945862,197.738144 133.945450,196.332947 144.362396,194.952911 
	C149.175369,194.307602 153.570969,193.637131 158.387909,192.980865 
	C161.701309,192.489471 164.593369,191.983902 167.485428,191.478333 
	C167.414444,190.977173 167.343475,190.476028 167.272507,189.974869 
	C163.843628,190.326538 160.414734,190.678207 156.582504,191.072601 
	C152.153488,191.931747 148.127823,192.748184 143.645691,193.623215 
	C133.169739,194.412827 123.150261,195.143845 113.127060,195.504364 
	C113.371696,191.185562 115.785095,189.273499 119.394119,188.554337 
	C127.377182,186.963608 135.353928,185.336075 143.357742,183.856033 
	C151.338943,182.380188 159.350052,181.066071 167.348038,179.681046 
	C151.896011,177.029465 136.582581,175.458359 121.259773,173.984711 
	C113.278603,173.217133 110.800331,170.936646 109.926895,162.897995 
	C108.886467,153.322525 107.800217,143.748169 107.024193,134.149857 
	C106.738548,130.616867 105.350624,129.352509 101.918610,129.663742 
	C103.591629,128.954514 105.332756,128.634567 107.378113,128.522369 
	C118.330055,130.477432 128.973480,132.252075 139.634125,133.916489 
	C140.428253,134.040482 141.345764,133.374191 142.511673,133.285233 
	C153.903351,135.096313 164.989258,136.697433 176.384186,138.507126 
	C181.232315,139.294876 185.771439,139.874084 190.743439,140.642349 
	C194.840424,141.268616 198.504532,141.705811 202.505096,142.301575 
	C208.593903,143.400421 214.342926,144.361710 220.099701,145.273895 
	C224.203735,145.924194 227.042938,148.065903 228.843307,151.874878 
	C231.255585,156.978439 233.920242,161.962692 236.546906,167.386993 
	C238.505493,170.976776 237.805222,176.125565 243.111481,176.763107 
	C253.120224,177.965637 263.142731,179.053574 273.566284,180.348114 
	C279.582489,181.644821 285.191895,182.782547 291.062866,184.217148 
	C297.931519,185.973969 304.512085,187.571564 311.153961,188.850800 
	C316.576355,189.895126 320.886688,192.924149 321.840118,198.016373 
	C323.438019,206.550873 328.700592,208.573288 336.115295,208.413223 
	C337.584351,208.381500 339.059784,208.644302 340.532257,208.771271 
M288.611145,243.735565 
	C293.069824,243.855682 297.528473,243.975800 302.605591,244.653366 
	C309.512787,245.011765 316.420013,245.370163 323.327209,245.728561 
	C323.347565,245.120804 323.367950,244.513062 323.388306,243.905319 
	C316.259674,243.602524 309.131073,243.299744 301.349091,242.728653 
	C296.892120,242.504593 292.435150,242.280533 287.071228,242.004715 
	C282.547028,241.791504 278.022858,241.578308 273.498657,241.365112 
	C273.489960,241.995300 273.481262,242.625488 273.472565,243.255676 
	C278.292603,243.255676 283.112640,243.255676 288.611145,243.735565 
M210.137772,236.975037 
	C200.606598,236.399780 191.071396,234.304626 181.547089,236.321304 
	C181.530548,236.866867 181.514008,237.412430 181.497467,237.957993 
	C191.316879,238.362122 201.136292,238.766251 211.645126,239.625504 
	C231.463165,240.615387 251.281204,241.605270 271.099243,242.595154 
	C271.136139,241.984421 271.173035,241.373688 271.209930,240.762970 
	C251.134201,239.534058 231.058487,238.305145 210.137772,236.975037 
M173.194153,276.577637 
	C173.198685,269.380768 171.222198,262.784790 166.963638,256.971649 
	C159.445267,246.708710 147.500854,244.774750 137.100571,252.041489 
	C121.288399,263.089508 117.929413,290.495026 130.596375,305.108185 
	C138.176193,313.852600 149.282242,315.418274 158.770157,308.705414 
	C169.468597,301.136078 173.393051,290.238983 173.194153,276.577637 
M235.924820,203.972534 
	C235.919479,202.149338 236.129913,200.294785 235.870255,198.508560 
	C234.907242,191.883774 229.467819,186.715683 224.062088,187.106918 
	C218.793961,187.488190 215.745056,192.264572 215.900284,199.901459 
	C215.913788,200.565079 215.925003,201.231400 215.992401,201.890839 
	C216.588516,207.723221 221.160553,213.514999 225.517761,213.974930 
	C229.784882,214.425339 233.229187,211.346451 235.924820,203.972534 
M45.084587,275.360229 
	C44.415657,272.131714 44.067360,268.786987 42.955582,265.718933 
	C42.305576,263.925201 40.436539,262.573212 39.115929,261.022491 
	C37.653446,262.618530 35.077457,264.110077 34.916161,265.828247 
	C34.103863,274.480988 33.723869,283.191010 33.641895,291.885132 
	C33.618198,294.398041 34.883263,297.015625 35.954082,299.407684 
	C36.498569,300.623993 38.076481,302.372589 38.916157,302.234314 
	C40.257252,302.013519 41.954861,300.652679 42.469265,299.362244 
	C43.789730,296.049866 44.542545,292.511230 45.496513,289.153717 
	C43.945122,288.656677 43.079475,288.379333 41.158836,287.763947 
	C47.271992,284.802490 45.644791,280.376862 45.084587,275.360229 
M68.641685,259.830109 
	C66.372559,249.149216 64.088112,238.471527 61.840046,227.786209 
	C60.484329,221.342331 58.090897,219.918045 51.036457,221.586578 
	C53.647488,233.524673 56.265892,245.464859 58.868000,257.408600 
	C59.983948,262.530853 64.043938,263.874756 68.641685,259.830109 
M308.006561,196.295685 
	C301.198883,201.580811 301.735443,214.776947 309.118866,219.059296 
	C310.372437,219.786346 313.032440,219.796417 314.036072,218.947571 
	C318.148987,215.468948 319.649170,210.879181 318.147369,205.514648 
	C316.773285,200.606583 314.527649,196.588913 308.006561,196.295685 
M239.408646,223.287323 
	C236.348984,215.744949 230.839706,213.684036 226.518066,218.465195 
	C223.631409,221.658844 223.147186,227.186310 225.599136,230.957275 
	C227.520050,233.911545 230.102020,236.025330 233.889603,234.836411 
	C238.639526,233.345428 239.649719,229.387650 239.768555,225.010330 
	C239.777390,224.685043 239.681412,224.356918 239.408646,223.287323 
M254.163147,189.610626 
	C253.107040,190.335037 251.153214,191.030197 251.128510,191.788223 
	C250.706345,204.741089 250.466797,217.701416 250.389923,230.661301 
	C250.383560,231.734604 251.834091,232.816544 252.607697,233.894470 
	C253.281906,232.927292 254.531265,231.967422 254.543655,230.991852 
	C254.716278,217.393661 254.719681,203.793335 254.163147,189.610626 
M242.206284,191.118576 
	C242.438339,196.105988 242.920212,201.097168 242.845398,206.079971 
	C242.725479,214.067505 242.152786,222.047882 241.999283,230.035675 
	C241.977554,231.167664 243.237396,232.324280 243.904068,233.469498 
	C244.578613,232.368103 245.746826,231.308090 245.843216,230.158234 
	C246.287872,224.854004 246.553131,219.527115 246.658234,214.203918 
	C246.802902,206.877457 246.840408,199.544922 246.680603,192.220322 
	C246.654175,191.009262 245.385742,189.825302 244.691254,188.628815 
	C243.874100,189.191345 243.056931,189.753891 242.206284,191.118576 
M298.602112,195.257889 
	C297.484863,194.594284 296.367615,193.930679 295.250366,193.267075 
	C294.883850,194.279160 294.212982,195.286530 294.197235,196.304047 
	C294.009430,208.428696 293.854736,220.555084 293.898529,232.680267 
	C293.903107,233.951218 295.230621,235.217407 295.944366,236.485794 
	C296.586060,235.166901 297.743042,233.865662 297.788971,232.526321 
	C298.204895,220.397339 298.426544,208.261673 298.602112,195.257889 
M271.202087,191.139267 
	C267.891357,190.339218 268.143646,192.623596 268.204926,194.656998 
	C268.359650,199.788910 268.761078,204.922226 268.691223,210.049911 
	C268.596375,217.007843 268.049866,223.959625 267.954437,230.917572 
	C267.936493,232.225601 269.124451,233.550186 269.755951,234.867142 
	C270.467499,233.646790 271.713867,232.463821 271.802216,231.199890 
	C272.310730,223.926117 272.769775,216.634155 272.801788,209.346405 
	C272.827728,203.439041 272.228638,197.528931 271.202087,191.139267 
M281.565033,206.623459 
	C281.411224,202.648071 281.454041,198.649582 280.991425,194.710464 
	C280.840240,193.423080 279.373718,192.290176 278.508759,191.086624 
	C277.747040,191.363495 276.985321,191.640366 276.223602,191.917236 
	C276.223602,205.470810 276.165009,219.025101 276.329651,232.576675 
	C276.343536,233.718170 277.854736,234.841476 278.670288,235.973221 
	C279.186829,235.713684 279.703339,235.454132 280.219849,235.194580 
	C280.674133,225.964584 281.128387,216.734573 281.565033,206.623459 
M263.737701,220.231827 
	C263.814758,211.569000 264.000153,202.904480 263.865784,194.244919 
	C263.842529,192.744690 262.465820,191.265472 261.714264,189.776550 
	C260.827911,189.983734 259.941559,190.190933 259.055206,190.398117 
	C259.055206,204.169495 258.997253,217.941574 259.167358,231.710846 
	C259.180695,232.789719 260.785431,233.848907 261.650543,234.917252 
	C262.020142,234.628387 262.389740,234.339539 262.759338,234.050674 
	C263.074310,229.757828 263.389282,225.464966 263.737701,220.231827 
M285.061951,230.279617 
	C285.342957,232.565445 283.771973,236.011917 289.207306,235.666809 
	C289.447388,222.187119 289.748352,208.772369 289.814392,195.356445 
	C289.820038,194.209915 288.263000,193.055695 287.431915,191.905045 
	C286.649811,192.140152 285.867706,192.375244 285.085602,192.610352 
	C285.085602,204.856537 285.085602,217.102707 285.061951,230.279617 
M78.939468,185.704468 
	C79.097069,188.314056 79.254669,190.923645 79.412262,193.533249 
	C80.087990,193.545761 80.763710,193.558289 81.439430,193.570816 
	C82.123863,188.034317 82.808289,182.497833 83.513084,176.796616 
	C79.745621,175.709274 77.520569,176.276505 78.397171,180.859528 
	C78.646133,182.161118 78.738983,183.492554 78.939468,185.704468 
M91.788750,161.558121 
	C94.810379,161.114304 97.832008,160.670486 100.847946,160.227493 
	C100.885750,155.214417 99.744919,154.835815 89.149216,156.670868 
	C89.840446,158.491806 90.515388,160.269821 91.788750,161.558121 
z"/>
<path fill="#01BA97" opacity="1.000000" stroke="none" 
	d="
M340.677490,208.401337 
	C339.059784,208.644302 337.584351,208.381500 336.115295,208.413223 
	C328.700592,208.573288 323.438019,206.550873 321.840118,198.016373 
	C320.886688,192.924149 316.576355,189.895126 311.153961,188.850800 
	C304.512085,187.571564 297.931519,185.973969 291.100403,183.794281 
	C292.976807,171.521408 293.032776,160.026596 291.181976,148.362915 
	C282.884399,96.070877 229.421967,59.215374 177.421478,70.499741 
	C144.212265,77.706314 120.870476,97.297607 107.073883,128.314606 
	C105.332756,128.634567 103.591629,128.954514 101.940285,129.653061 
	C102.030067,130.031662 102.049332,129.987396 102.049332,129.987396 
	C101.419235,130.313202 100.210991,130.721115 100.243889,130.952744 
	C100.999191,136.270096 97.017059,137.521713 93.419113,139.287140 
	C83.101128,144.349945 72.868095,149.585892 62.549553,154.647537 
	C56.245560,157.739883 52.317474,162.361740 51.653320,169.589615 
	C50.526764,181.849808 49.242897,194.095657 47.993660,206.344315 
	C47.827118,207.977264 47.476830,209.591446 46.960831,211.688293 
	C46.710018,212.162262 46.438324,212.367233 46.438324,212.367233 
	C44.728691,205.445007 42.991394,198.529343 41.343266,191.592499 
	C41.129124,190.691193 41.172634,188.904953 41.437378,188.835983 
	C46.109715,187.618805 43.831310,184.025681 43.875511,181.481537 
	C44.063030,170.686981 44.086205,159.887131 43.947159,149.092072 
	C43.926598,147.496063 42.674244,145.930481 42.068359,144.321976 
	C41.703110,143.352325 41.041306,142.210403 41.268562,141.344162 
	C44.713440,128.213287 48.283577,115.115280 51.924526,101.638985 
	C54.319344,102.407860 55.347836,102.738068 55.959476,102.934441 
	C63.734276,90.863976 71.443047,78.896027 79.404816,66.535286 
	C79.093094,66.185211 78.286667,65.279572 76.881844,63.701912 
	C87.871666,54.192791 98.661293,44.856899 109.450912,35.521008 
	C109.745667,36.102612 110.040428,36.684216 110.335190,37.265823 
	C112.339088,37.060852 114.554092,37.339443 116.312363,36.571835 
	C127.107193,31.859146 137.826019,26.968134 148.492920,21.971624 
	C149.961502,21.283724 151.001862,19.681606 152.240463,18.502739 
	C151.891632,17.752230 151.542786,17.001722 151.193939,16.251215 
	C165.435699,14.194472 179.677460,12.137731 193.919220,10.080989 
	C193.845123,10.856189 193.771027,11.631390 193.696945,12.406590 
	C195.697418,13.260945 197.626724,14.565313 199.710205,14.894872 
	C211.178513,16.708885 222.674927,18.357538 234.187134,19.869078 
	C236.067825,20.116007 238.075333,19.397188 240.024216,19.124733 
	C240.173401,18.382328 240.322571,17.639921 240.471741,16.897516 
	C253.393372,22.869514 266.315002,28.841513 279.236633,34.813511 
	C278.738037,35.412880 278.239410,36.012245 277.740814,36.611614 
	C278.736969,38.293404 279.397064,40.349075 280.784149,41.595974 
	C289.429779,49.367798 298.195923,57.008022 307.037445,64.556786 
	C308.382080,65.704826 310.326416,66.150467 311.993378,66.920982 
	C312.590820,66.227448 313.188232,65.533905 313.785645,64.840370 
	C321.487274,76.979294 329.188904,89.118225 336.973022,101.387123 
	C335.256927,102.855843 334.326050,103.652527 333.841461,104.067261 
	C336.653534,112.943695 339.460632,121.460114 342.018158,130.050827 
	C343.009338,133.380249 343.206940,136.946274 344.202148,140.274094 
	C344.842957,142.416931 346.277527,144.322403 347.356354,146.334259 
	C348.044739,146.153091 348.733154,145.971924 349.421539,145.790756 
	C349.421539,159.881393 349.421539,173.972015 349.421539,188.062653 
	C348.783234,187.875092 348.144928,187.687531 347.506592,187.499969 
	C346.332397,189.648239 344.742767,191.675018 344.071472,193.970383 
	C342.723358,198.579819 341.876465,203.335876 340.677490,208.401337 
z"/>
<path fill="#313909" opacity="1.000000" stroke="none" 
	d="
M657.471436,254.648071 
	C657.400085,255.906570 657.488586,257.398071 657.234375,257.458984 
	C652.244507,258.654327 653.799194,262.612396 653.769104,265.727295 
	C653.669312,276.045868 653.731384,286.366028 653.731384,297.533234 
	C647.983398,297.533234 642.405090,297.690125 636.850586,297.395844 
	C635.787781,297.339508 634.604065,295.645447 633.841614,294.469879 
	C628.540100,286.295837 623.335083,278.059235 617.337891,268.648163 
	C617.337891,275.144714 617.337891,280.194519 617.337891,285.642395 
	C624.112610,287.286102 619.486816,292.911835 621.352966,297.168457 
	C613.430115,297.168457 606.215210,297.168457 598.272095,297.168457 
	C598.272095,294.473450 598.248413,291.716736 598.289917,288.960999 
	C598.299500,288.324921 598.410156,287.197205 598.679871,287.130859 
	C604.424805,285.717041 601.777283,281.127777 602.033508,277.872833 
	C602.398438,273.237854 602.214783,268.550323 602.089172,263.890015 
	C602.025818,261.537354 603.112671,259.078888 599.225525,257.576202 
	C597.789307,257.020996 598.340454,251.324753 597.905396,247.220062 
	C606.009705,247.220062 613.437195,247.103775 620.852722,247.350235 
	C621.918091,247.385651 623.162720,249.014343 623.920715,250.170380 
	C628.653442,257.388794 633.271423,264.682495 638.061768,272.160980 
	C640.404358,264.324280 639.379944,259.100616 635.305786,257.698914 
	C635.305786,254.444809 635.305786,251.153503 635.305786,247.529358 
	C642.563232,247.529358 649.653809,247.529358 657.471680,247.529358 
	C657.471680,249.678284 657.471680,251.946640 657.471436,254.648071 
z"/>
<path fill="#303708" opacity="1.000000" stroke="none" 
	d="
M807.758057,285.055359 
	C807.640930,277.553162 806.627808,276.444031 800.313904,277.033386 
	C801.507446,280.505402 796.718689,285.805878 804.249329,286.916107 
	C804.249329,290.408447 804.249329,293.682190 804.249329,297.261169 
	C795.794556,297.261169 787.548340,297.261169 778.491577,297.261169 
	C779.897827,293.400635 775.278259,288.341583 781.902710,285.689850 
	C782.335205,285.516693 782.254517,283.834595 782.258362,282.853790 
	C782.285645,275.861145 782.286316,268.868225 782.257324,261.875580 
	C782.253296,260.896637 782.299377,259.195648 781.886536,259.048157 
	C775.318359,256.700958 780.086609,251.491409 778.218506,247.651337 
	C790.505127,247.651337 802.078796,247.394287 813.632324,247.765442 
	C818.989197,247.937531 823.239929,250.950714 824.635681,256.428619 
	C826.119934,262.253571 826.138733,268.030884 821.221985,272.637177 
	C820.769043,273.061584 820.386414,273.561035 820.458496,273.480347 
	C825.523315,280.834991 828.674316,288.204163 827.847412,297.254974 
	C821.277954,297.254974 814.843140,297.254974 807.757996,297.254974 
	C807.757996,293.414703 807.757996,289.476379 807.758057,285.055359 
M807.392029,265.865448 
	C807.732361,258.619324 806.512390,257.408722 800.505615,258.993164 
	C800.505615,262.360687 800.505615,265.713776 800.505615,270.794617 
	C803.420654,268.992035 805.335449,267.807983 807.392029,265.865448 
z"/>
<path fill="#303808" opacity="1.000000" stroke="none" 
	d="
M479.225159,277.456207 
	C477.416138,276.916229 475.999908,276.614563 473.503235,276.082764 
	C475.137634,280.260437 470.694336,285.295990 477.771118,287.017120 
	C477.771118,290.220612 477.771118,293.501648 477.771118,297.178040 
	C469.381073,297.178040 461.001251,297.178040 451.828308,297.178040 
	C453.491730,293.341095 448.644257,288.021759 455.887634,285.604767 
	C455.887634,277.657318 455.897736,269.506042 455.871735,261.354919 
	C455.869171,260.550079 455.829651,259.131775 455.497223,259.032074 
	C448.588806,256.960205 453.748871,251.459961 451.512451,247.731354 
	C464.004974,247.731354 475.760406,247.452835 487.492401,247.855927 
	C492.873260,248.040833 496.824799,251.266586 498.233978,256.793671 
	C499.708588,262.577454 499.405609,268.040039 494.813782,272.534943 
	C494.354523,272.984528 493.871582,273.409912 493.699890,273.568787 
	C498.979980,280.702698 502.187531,288.168610 501.294678,297.320312 
	C494.509430,297.320312 488.097290,297.320312 481.129547,297.320312 
	C481.129547,292.481995 481.271729,287.865082 481.060577,283.264404 
	C480.974518,281.389648 480.121826,279.550079 479.225159,277.456207 
M480.689667,267.075653 
	C481.595520,258.992706 480.432648,257.544128 474.112671,258.935455 
	C474.112671,262.320679 474.112671,265.709473 474.112671,269.956696 
	C476.510620,269.137390 478.393250,268.494171 480.689667,267.075653 
z"/>
<path fill="#303809" opacity="1.000000" stroke="none" 
	d="
M595.244385,287.948883 
	C595.244385,291.235321 595.244385,294.044525 595.244385,297.212158 
	C580.762878,297.212158 566.553528,297.212158 551.545593,297.212158 
	C552.874023,293.450226 548.294983,288.462494 554.861084,285.744354 
	C555.367432,285.534729 555.247925,283.579803 555.254272,282.435150 
	C555.288513,276.279785 555.373718,270.121552 555.217102,263.970001 
	C555.158875,261.682770 556.356934,259.159454 552.454773,257.607361 
	C551.007935,257.031860 551.603882,251.320511 551.228882,247.556503 
	C566.077515,247.556503 580.286682,247.556503 594.871521,247.556503 
	C594.871521,253.907211 594.871521,260.425018 594.871521,267.152252 
	C590.365234,267.152252 585.939392,267.152252 581.238831,267.152252 
	C581.079468,264.238922 580.929199,261.491455 580.770447,258.589294 
	C578.294861,258.589294 576.065369,258.589294 573.541382,258.589294 
	C573.541382,261.766022 573.541382,264.672729 573.541382,267.852753 
	C575.066406,268.100189 576.653137,268.357635 578.546814,268.664856 
	C578.546814,270.768005 578.546814,272.833527 578.546814,275.066681 
	C576.930542,275.304016 575.335510,275.538239 573.510742,275.806183 
	C573.510742,279.251709 573.510742,282.497986 573.510742,286.081207 
	C575.832825,286.081207 578.091553,286.081207 580.773987,286.081207 
	C580.913452,283.082794 581.056641,280.002625 581.212952,276.642181 
	C585.808350,276.642181 590.235901,276.642181 595.244446,276.642181 
	C595.244446,280.240356 595.244446,283.856018 595.244385,287.948883 
z"/>
<path fill="#313809" opacity="1.000000" stroke="none" 
	d="
M508.003510,271.012268 
	C508.003510,266.692535 508.003510,262.868896 508.003510,259.121490 
	C500.851349,256.866608 505.549011,251.521713 503.889557,247.444687 
	C518.919739,247.444687 533.161072,247.444687 547.699829,247.444687 
	C547.699829,254.037781 547.699829,260.451233 547.699829,267.113525 
	C543.228516,267.113525 538.783081,267.113525 534.007507,267.113525 
	C533.839844,264.377869 533.671814,261.636780 533.486389,258.611023 
	C531.009827,258.611023 528.761414,258.611023 526.253113,258.611023 
	C526.253113,261.615356 526.253113,264.563232 526.253113,267.937225 
	C527.692139,268.137665 529.243286,268.353729 531.128784,268.616333 
	C531.128784,270.695007 531.128784,272.769928 531.128784,275.091400 
	C529.536316,275.309174 527.941833,275.527222 526.183960,275.767639 
	C526.183960,279.201782 526.183960,282.475922 526.183960,286.082520 
	C528.562073,286.082520 530.791992,286.082520 533.592834,286.082520 
	C533.592834,283.012665 533.592834,279.949677 533.592834,276.627075 
	C538.550476,276.627075 542.951782,276.627075 547.676880,276.627075 
	C547.676880,283.487518 547.676880,290.224457 547.676880,297.265442 
	C533.278198,297.265442 518.884521,297.265442 504.130432,297.265442 
	C504.130432,294.320129 504.123169,291.680145 504.136932,289.040283 
	C504.139526,288.545563 504.054840,287.735107 504.299011,287.602753 
	C511.643097,283.621704 506.415771,276.777771 508.003510,271.012268 
z"/>
<path fill="#2F3707" opacity="1.000000" stroke="none" 
	d="
M420.724976,267.086914 
	C420.736633,272.572296 420.601501,277.577118 420.805878,282.568024 
	C420.973022,286.650757 424.425598,288.896057 427.588562,286.898743 
	C428.760620,286.158661 429.035919,283.998505 429.720215,282.485992 
	C424.220398,280.289429 427.787262,275.797577 426.711395,272.058899 
	C434.233856,272.058899 441.318146,272.058899 449.058624,272.058899 
	C448.365021,275.601868 451.511536,279.475800 446.540009,282.692749 
	C445.246887,283.529449 445.850098,287.729218 446.060211,290.345947 
	C446.315979,293.531555 445.218933,295.235168 442.106384,296.122406 
	C433.810242,298.487213 425.472046,299.556976 416.956543,297.583008 
	C405.765259,294.988739 400.620789,286.573456 400.767273,271.236023 
	C400.897064,257.645477 406.370667,248.720322 417.280975,247.408020 
	C425.178894,246.458038 433.380310,247.803879 441.425201,248.407974 
	C444.935455,248.671570 446.502136,250.838120 446.061554,254.595444 
	C445.715546,257.545837 445.992096,260.569244 445.992096,263.945190 
	C440.738129,263.945190 435.683899,263.945190 430.326843,263.945190 
	C430.218079,263.001099 430.488220,261.536652 429.881561,260.869873 
	C428.601349,259.462799 426.824463,257.518616 425.322144,257.578278 
	C423.794464,257.638947 421.843323,259.582275 421.021667,261.185120 
	C420.268341,262.654694 420.774048,264.769714 420.724976,267.086914 
z"/>
<path fill="#303809" opacity="1.000000" stroke="none" 
	d="
M737.885315,252.757599 
	C738.448547,250.774597 738.922668,249.189346 739.451050,247.422607 
	C747.150818,247.422607 754.764038,247.422607 762.655701,247.422607 
	C765.860352,259.055267 768.724121,270.688568 772.361206,282.074860 
	C773.930420,286.987335 777.762695,291.232300 775.394043,297.249817 
	C767.637573,297.249817 759.563599,297.249817 750.769409,297.249817 
	C752.332336,293.281097 748.140015,288.323456 754.105957,285.567078 
	C754.314575,285.470673 753.880920,282.521149 753.009277,281.826019 
	C750.463501,279.795715 745.218262,282.067047 744.318237,285.347992 
	C750.683105,287.817688 746.874634,292.991028 747.944702,297.299438 
	C740.476501,297.299438 733.547058,297.299438 726.065308,297.299438 
	C726.862427,293.141876 723.903564,288.781555 728.684814,285.206970 
	C730.170715,284.096130 730.116516,280.907959 730.739319,278.663055 
	C733.097839,270.162201 735.444824,261.658173 737.885315,252.757599 
M746.993591,271.581543 
	C746.533203,276.606262 749.975159,273.617554 752.386047,274.524261 
	C751.448486,270.180389 750.658691,266.520844 749.868835,262.861298 
	C749.617798,262.839935 749.366821,262.818604 749.115784,262.797241 
	C748.452515,265.453186 747.789246,268.109131 746.993591,271.581543 
z"/>
<path fill="#323A0B" opacity="1.000000" stroke="none" 
	d="
M830.263550,293.036774 
	C831.008850,290.138519 831.270691,287.368195 832.584167,285.250000 
	C837.845276,276.765991 843.435547,268.486145 848.885193,260.118530 
	C849.043030,259.876160 848.990051,259.496490 849.100464,258.727417 
	C847.727173,258.565491 846.378662,258.406464 844.692932,258.207703 
	C844.338196,260.005096 844.037720,261.527405 843.727234,263.100647 
	C839.631653,263.100647 835.687500,263.100647 831.505127,263.100647 
	C831.505127,257.926971 831.505127,252.991104 831.505127,247.621201 
	C844.674988,247.621201 857.867432,247.621201 871.332458,247.621201 
	C872.244324,252.413162 871.871826,256.763245 868.786926,261.107483 
	C863.147766,269.048798 858.028748,277.359467 852.300232,286.116028 
	C855.250183,286.116028 857.318604,286.116028 859.666748,286.116028 
	C859.867004,284.725555 860.071289,283.306854 860.311829,281.636261 
	C864.322327,281.636261 868.236877,281.636261 872.444336,281.636261 
	C872.444336,286.918488 872.444336,291.969299 872.444336,297.566071 
	C858.963074,297.566071 845.684937,297.631775 832.412476,297.391052 
	C831.672668,297.377655 830.978821,294.831665 830.263550,293.036774 
z"/>
<path fill="#303809" opacity="1.000000" stroke="none" 
	d="
M715.972168,278.359985 
	C718.393066,278.360016 720.352661,278.360016 722.858643,278.360016 
	C722.858643,283.281525 723.072632,287.738922 722.718079,292.150635 
	C722.621460,293.353333 721.027954,294.953735 719.757812,295.460938 
	C710.841492,299.021301 701.657532,299.902649 692.432373,296.833801 
	C683.018372,293.702087 678.595459,285.300964 678.755493,271.615173 
	C678.906250,258.719269 683.567810,250.668137 692.933533,247.744690 
	C702.027771,244.906021 711.045532,245.771927 719.711853,249.471558 
	C721.114075,250.070129 722.559570,252.186874 722.728027,253.738358 
	C723.155701,257.677612 722.870117,261.694305 722.870117,266.014526 
	C717.748596,266.014526 712.866333,266.014526 707.795166,266.014526 
	C707.595398,264.093628 707.904724,262.019287 707.084290,260.596283 
	C706.260132,259.166748 704.261536,257.495850 702.868347,257.572876 
	C701.494324,257.648865 699.163879,259.729279 699.100342,261.021057 
	C698.733154,268.493896 698.703857,276.004486 699.095215,283.474243 
	C699.167236,284.848114 701.680176,287.096405 703.092163,287.116302 
	C704.508179,287.136261 706.299866,285.090149 707.274475,283.539459 
	C707.972351,282.429260 707.594666,280.643036 707.751831,278.359955 
	C710.356812,278.359955 712.933838,278.359955 715.972168,278.359985 
z"/>
<path fill="#04B28E" opacity="1.000000" stroke="none" 
	d="
M344.197510,241.703232 
	C335.839783,242.534012 331.448639,237.359329 334.309967,229.593552 
	C335.120056,227.394974 338.119965,224.621246 340.102844,224.631256 
	C342.028229,224.640945 344.736115,227.563202 345.637604,229.796844 
	C346.615570,232.219925 345.904877,235.324539 345.936951,238.693634 
	C345.427307,240.068924 344.911316,240.882538 344.197510,241.703232 
z"/>
<path fill="#216D43" opacity="1.000000" stroke="none" 
	d="
M46.251366,212.692673 
	C46.438324,212.367233 46.710018,212.162262 46.862988,212.087555 
	C47.793861,212.589386 48.727386,213.784592 49.322617,213.634872 
	C51.838009,213.002167 54.252689,211.969070 57.113239,210.558395 
	C58.951958,209.636520 60.381634,209.238647 61.811310,208.840775 
	C63.301224,209.235748 64.791138,209.630722 66.952667,210.027328 
	C67.791466,210.074722 67.958641,210.120499 68.125809,210.166260 
	C67.993736,211.133087 67.861671,212.099899 67.808594,212.488434 
	C64.969360,212.714767 62.373131,212.605270 59.935509,213.174713 
	C52.276112,214.964020 44.676361,217.008667 36.675323,218.920044 
	C37.859261,217.514618 39.282093,215.917892 41.026073,214.841507 
	C42.513874,213.923203 44.370777,213.602936 46.251366,212.692673 
z"/>
<path fill="#FCFEFD" opacity="1.000000" stroke="none" 
	d="
M107.378113,128.522369 
	C120.870476,97.297607 144.212265,77.706314 177.421478,70.499741 
	C229.421967,59.215374 282.884399,96.070877 291.181976,148.362915 
	C293.032776,160.026596 292.976807,171.521408 290.838837,183.497406 
	C285.191895,182.782547 279.582489,181.644821 273.659729,179.881958 
	C273.655518,176.802551 274.065796,174.356079 274.255402,171.892609 
	C274.900208,163.514984 273.350800,161.328079 265.168060,159.356064 
	C263.443756,158.940491 261.411224,158.651230 259.789124,159.159805 
	C251.967926,161.612030 244.238510,164.357040 236.476532,166.998169 
	C233.920242,161.962692 231.255585,156.978439 228.843307,151.874878 
	C227.042938,148.065903 224.203735,145.924194 220.099701,145.273895 
	C214.342926,144.361710 208.593903,143.400421 202.561249,141.887787 
	C202.221283,137.682861 200.680145,135.158310 196.823837,134.957596 
	C193.108795,134.764236 191.032104,136.900787 190.310547,140.453278 
	C185.771439,139.874084 181.232315,139.294876 176.726608,138.410370 
	C179.174683,134.456467 182.638672,131.094620 183.734222,127.085571 
	C185.056625,122.246468 184.537003,116.857643 184.510559,111.708321 
	C184.479401,105.641922 183.446442,99.774071 179.481979,94.843147 
	C176.636795,91.304367 173.592865,89.754868 168.722137,91.723419 
	C156.779404,96.550163 146.360611,103.376404 137.751007,112.961037 
	C132.398483,118.919708 132.498825,123.603668 138.200470,129.410767 
	C139.466446,130.700180 140.867218,131.857269 142.205917,133.075287 
	C141.345764,133.374191 140.428253,134.040482 139.634125,133.916489 
	C128.973480,132.252075 118.330055,130.477432 107.378113,128.522369 
M214.084564,136.279709 
	C219.510269,141.582520 225.711044,143.734024 233.176651,141.144272 
	C238.501602,139.297104 243.960800,137.807404 249.199387,135.749191 
	C254.539536,133.651077 258.522919,129.838348 259.922607,124.124298 
	C260.359589,122.340385 260.004242,119.765373 258.958252,118.309052 
	C250.089706,105.961418 238.162949,97.493027 224.139343,91.900414 
	C222.955154,91.428162 221.082413,91.267448 220.122879,91.884567 
	C215.190628,95.056686 211.455261,99.299133 211.184464,105.482162 
	C210.864929,112.777962 210.651962,120.099899 210.933105,127.389671 
	C211.041611,130.203766 212.633224,132.960663 214.084564,136.279709 
z"/>
<path fill="#01B592" opacity="1.000000" stroke="none" 
	d="
M173.197418,277.053925 
	C173.393051,290.238983 169.468597,301.136078 158.770157,308.705414 
	C149.282242,315.418274 138.176193,313.852600 130.596375,305.108185 
	C117.929413,290.495026 121.288399,263.089508 137.100571,252.041489 
	C147.500854,244.774750 159.445267,246.708710 166.963638,256.971649 
	C171.222198,262.784790 173.198685,269.380768 173.197418,277.053925 
M135.773102,286.666840 
	C138.013229,284.872589 140.253372,283.078339 143.030533,280.853943 
	C139.817947,278.533508 137.398361,276.785889 134.978775,275.038239 
	C134.522934,275.251709 134.067078,275.465179 133.611237,275.678650 
	C134.075409,279.392548 134.539581,283.106445 135.773102,286.666840 
M169.614563,270.393555 
	C168.054321,266.895386 166.494064,263.397186 164.933823,259.899017 
	C164.316177,260.102264 163.698532,260.305542 163.080902,260.508820 
	C162.979599,262.401215 162.805557,264.293060 162.790741,266.186157 
	C162.747375,271.724030 163.594788,272.342194 169.614563,270.393555 
M163.073975,296.497498 
	C163.796188,296.543213 165.023529,296.857544 165.163788,296.593781 
	C166.890106,293.347412 168.457520,290.016510 170.304520,286.216766 
	C162.973969,287.342010 162.973969,287.342010 163.073975,296.497498 
M148.607025,266.026489 
	C149.185562,263.537354 149.764084,261.048187 150.342621,258.559052 
	C149.894272,258.328247 149.445938,258.097443 148.997589,257.866638 
	C146.811386,259.264954 144.625168,260.663269 141.497284,262.663879 
	C144.399612,264.184113 146.104675,265.077240 148.607025,266.026489 
M145.865250,277.968323 
	C147.221252,277.460083 148.577240,276.951843 149.933243,276.443634 
	C149.078094,275.139954 148.493790,273.221161 147.296677,272.694031 
	C145.915176,272.085663 143.993195,272.704712 142.305893,272.790771 
	C143.227524,274.446869 144.149155,276.102966 145.865250,277.968323 
M144.837158,289.066193 
	C148.272430,289.088684 149.943909,287.185211 149.930115,283.947601 
	C149.927292,283.282227 148.539185,282.622772 147.789597,281.960602 
	C146.293839,283.824646 144.778168,285.673798 143.350220,287.588409 
	C143.261444,287.707428 143.861755,288.340363 144.837158,289.066193 
M150.004089,296.991028 
	C149.292953,296.504303 148.297272,295.442535 147.919479,295.629486 
	C146.203247,296.478699 144.661118,297.679749 142.257782,299.288879 
	C145.143234,300.795929 147.223221,301.882263 150.032593,303.349548 
	C150.032593,300.969543 150.032593,299.381287 150.004089,296.991028 
M156.461502,289.337860 
	C155.998199,287.797455 155.534882,286.257080 155.071579,284.716675 
	C154.460800,284.800171 153.850006,284.883636 153.239227,284.967133 
	C153.239227,287.598724 153.239227,290.230286 153.239227,292.861877 
	C153.733078,292.973480 154.226913,293.085083 154.720764,293.196655 
	C155.248337,292.151581 155.775909,291.106506 156.461502,289.337860 
M161.953323,280.944580 
	C161.052856,279.570770 160.152405,278.196960 159.251953,276.823151 
	C158.496994,278.042267 156.938156,279.423889 157.145309,280.448456 
	C157.663376,283.010742 159.490311,283.409332 161.953323,280.944580 
M153.248291,274.511108 
	C154.136459,274.308105 155.795990,274.101166 155.794983,273.902649 
	C155.783325,271.596741 155.521072,269.292084 155.325211,266.987122 
	C154.509552,267.031464 153.693893,267.075836 152.878235,267.120209 
	C152.878235,269.340942 152.878235,271.561707 153.248291,274.511108 
z"/>
<path fill="#04BA98" opacity="1.000000" stroke="none" 
	d="
M142.511673,133.285233 
	C140.867218,131.857269 139.466446,130.700180 138.200470,129.410767 
	C132.498825,123.603668 132.398483,118.919708 137.751007,112.961037 
	C146.360611,103.376404 156.779404,96.550163 168.722137,91.723419 
	C173.592865,89.754868 176.636795,91.304367 179.481979,94.843147 
	C183.446442,99.774071 184.479401,105.641922 184.510559,111.708321 
	C184.537003,116.857643 185.056625,122.246468 183.734222,127.085571 
	C182.638672,131.094620 179.174683,134.456467 176.417603,138.201813 
	C164.989258,136.697433 153.903351,135.096313 142.511673,133.285233 
z"/>
<path fill="#02B38F" opacity="1.000000" stroke="none" 
	d="
M102.008392,130.042343 
	C105.350624,129.352509 106.738548,130.616867 107.024193,134.149857 
	C107.800217,143.748169 108.886467,153.322525 109.926895,162.897995 
	C110.800331,170.936646 113.278603,173.217133 121.259773,173.984711 
	C136.582581,175.458359 151.896011,177.029465 167.348038,179.681046 
	C159.350052,181.066071 151.338943,182.380188 143.357742,183.856033 
	C135.353928,185.336075 127.377182,186.963608 119.394119,188.554337 
	C115.785095,189.273499 113.371696,191.185562 113.074142,195.902069 
	C113.038071,197.472076 113.051170,198.273895 113.064270,199.075714 
	C109.144417,199.984161 109.635521,196.750610 109.367592,194.778122 
	C108.248779,186.541306 107.339348,178.275299 106.412804,170.013306 
	C104.949364,156.963821 103.533813,143.908951 102.073669,130.421875 
	C102.049332,129.987396 102.030067,130.031662 102.008392,130.042343 
z"/>
<path fill="#04B996" opacity="1.000000" stroke="none" 
	d="
M236.546906,167.386993 
	C244.238510,164.357040 251.967926,161.612030 259.789124,159.159805 
	C261.411224,158.651230 263.443756,158.940491 265.168060,159.356064 
	C273.350800,161.328079 274.900208,163.514984 274.255402,171.892609 
	C274.065796,174.356079 273.655518,176.802551 273.252930,179.722977 
	C263.142731,179.053574 253.120224,177.965637 243.111481,176.763107 
	C237.805222,176.125565 238.505493,170.976776 236.546906,167.386993 
z"/>
<path fill="#01B693" opacity="1.000000" stroke="none" 
	d="
M235.859100,204.380981 
	C233.229187,211.346451 229.784882,214.425339 225.517761,213.974930 
	C221.160553,213.514999 216.588516,207.723221 215.992401,201.890839 
	C215.925003,201.231400 215.913788,200.565079 215.900284,199.901459 
	C215.745056,192.264572 218.793961,187.488190 224.062088,187.106918 
	C229.467819,186.715683 234.907242,191.883774 235.870255,198.508560 
	C236.129913,200.294785 235.919479,202.149338 235.859100,204.380981 
z"/>
<path fill="#03B08C" opacity="1.000000" stroke="none" 
	d="
M45.115051,275.793030 
	C45.644791,280.376862 47.271992,284.802490 41.158836,287.763947 
	C43.079475,288.379333 43.945122,288.656677 45.496513,289.153717 
	C44.542545,292.511230 43.789730,296.049866 42.469265,299.362244 
	C41.954861,300.652679 40.257252,302.013519 38.916157,302.234314 
	C38.076481,302.372589 36.498569,300.623993 35.954082,299.407684 
	C34.883263,297.015625 33.618198,294.398041 33.641895,291.885132 
	C33.723869,283.191010 34.103863,274.480988 34.916161,265.828247 
	C35.077457,264.110077 37.653446,262.618530 39.115921,261.022491 
	C40.436539,262.573212 42.305576,263.925201 42.955582,265.718933 
	C44.067360,268.786987 44.415657,272.131714 45.115051,275.793030 
M38.131451,289.667786 
	C39.123081,287.914276 40.353737,286.232300 40.916920,284.350555 
	C41.038403,283.944641 38.754349,282.818756 36.592098,281.358398 
	C36.968136,284.931610 37.201923,287.153076 38.131451,289.667786 
z"/>
<path fill="#02B591" opacity="1.000000" stroke="none" 
	d="
M68.694427,260.243317 
	C64.043938,263.874756 59.983948,262.530853 58.868000,257.408600 
	C56.265892,245.464859 53.647488,233.524673 51.036457,221.586578 
	C58.090897,219.918045 60.484329,221.342331 61.840046,227.786209 
	C64.088112,238.471527 66.372559,249.149216 68.694427,260.243317 
z"/>
<path fill="#01B693" opacity="1.000000" stroke="none" 
	d="
M61.871872,208.481628 
	C60.381634,209.238647 58.951958,209.636520 57.199623,210.231903 
	C56.409527,210.069214 55.504997,209.661392 55.538288,209.355728 
	C56.474648,200.758408 57.505749,192.171417 58.753990,184.183197 
	C59.141319,186.042618 59.295959,187.301544 59.450596,188.560455 
	C59.919052,188.517441 60.387505,188.474411 60.855961,188.431381 
	C60.693348,187.026764 60.530739,185.622147 60.368126,184.217529 
	C60.041496,179.653000 59.320564,175.073044 59.498272,170.528229 
	C59.678795,165.911301 62.965919,163.791962 68.766052,162.794113 
	C67.895012,169.493134 66.924126,175.512894 66.385780,181.571075 
	C65.975853,186.184250 66.209969,190.851318 65.960609,195.483810 
	C65.867790,197.208267 65.215431,198.902588 64.178024,200.837799 
	C60.452980,201.820328 61.111382,203.867035 61.854965,205.943146 
	C61.880787,206.669586 61.906612,207.396027 61.871872,208.481628 
M61.317871,195.451370 
	C60.953388,195.941254 60.588909,196.431137 60.224419,196.921021 
	C60.579212,197.122467 60.934002,197.323929 61.288788,197.525375 
	C61.440865,196.982208 61.592941,196.439056 61.317871,195.451370 
z"/>
<path fill="#02B491" opacity="1.000000" stroke="none" 
	d="
M308.373535,196.197296 
	C314.527649,196.588913 316.773285,200.606583 318.147369,205.514648 
	C319.649170,210.879181 318.148987,215.468948 314.036072,218.947571 
	C313.032440,219.796417 310.372437,219.786346 309.118866,219.059296 
	C301.735443,214.776947 301.198883,201.580811 308.373535,196.197296 
z"/>
<path fill="#02B491" opacity="1.000000" stroke="none" 
	d="
M239.521408,223.658722 
	C239.681412,224.356918 239.777390,224.685043 239.768555,225.010330 
	C239.649719,229.387650 238.639526,233.345428 233.889603,234.836411 
	C230.102020,236.025330 227.520050,233.911545 225.599136,230.957275 
	C223.147186,227.186310 223.631409,221.658844 226.518066,218.465195 
	C230.839706,213.684036 236.348984,215.744949 239.521408,223.658722 
z"/>
<path fill="#03AF8B" opacity="1.000000" stroke="none" 
	d="
M254.463745,189.902069 
	C254.719681,203.793335 254.716278,217.393661 254.543655,230.991852 
	C254.531265,231.967422 253.281906,232.927292 252.607697,233.894470 
	C251.834091,232.816544 250.383560,231.734604 250.389923,230.661301 
	C250.466797,217.701416 250.706345,204.741089 251.128510,191.788223 
	C251.153214,191.030197 253.107040,190.335037 254.463745,189.902069 
z"/>
<path fill="#03AF8B" opacity="1.000000" stroke="none" 
	d="
M242.223022,190.717499 
	C243.056931,189.753891 243.874100,189.191345 244.691254,188.628815 
	C245.385742,189.825302 246.654175,191.009262 246.680603,192.220322 
	C246.840408,199.544922 246.802902,206.877457 246.658234,214.203918 
	C246.553131,219.527115 246.287872,224.854004 245.843216,230.158234 
	C245.746826,231.308090 244.578613,232.368103 243.904068,233.469498 
	C243.237396,232.324280 241.977554,231.167664 241.999283,230.035675 
	C242.152786,222.047882 242.725479,214.067505 242.845398,206.079971 
	C242.920212,201.097168 242.438339,196.105988 242.223022,190.717499 
z"/>
<path fill="#04AC88" opacity="1.000000" stroke="none" 
	d="
M298.653625,195.692932 
	C298.426544,208.261673 298.204895,220.397339 297.788971,232.526321 
	C297.743042,233.865662 296.586060,235.166901 295.944366,236.485794 
	C295.230621,235.217407 293.903107,233.951218 293.898529,232.680267 
	C293.854736,220.555084 294.009430,208.428696 294.197235,196.304047 
	C294.212982,195.286530 294.883850,194.279160 295.250366,193.267075 
	C296.367615,193.930679 297.484863,194.594284 298.653625,195.692932 
z"/>
<path fill="#04AD89" opacity="1.000000" stroke="none" 
	d="
M271.554443,191.379654 
	C272.228638,197.528931 272.827728,203.439041 272.801788,209.346405 
	C272.769775,216.634155 272.310730,223.926117 271.802216,231.199890 
	C271.713867,232.463821 270.467499,233.646790 269.755951,234.867126 
	C269.124451,233.550186 267.936493,232.225601 267.954437,230.917572 
	C268.049866,223.959625 268.596375,217.007843 268.691223,210.049911 
	C268.761078,204.922226 268.359650,199.788910 268.204926,194.656998 
	C268.143646,192.623596 267.891357,190.339218 271.554443,191.379654 
z"/>
<path fill="#03B08C" opacity="1.000000" stroke="none" 
	d="
M281.573853,207.064026 
	C281.128387,216.734573 280.674133,225.964584 280.219849,235.194580 
	C279.703339,235.454132 279.186829,235.713684 278.670288,235.973221 
	C277.854736,234.841476 276.343536,233.718170 276.329651,232.576675 
	C276.165009,219.025101 276.223602,205.470810 276.223602,191.917236 
	C276.985321,191.640366 277.747040,191.363495 278.508759,191.086624 
	C279.373718,192.290176 280.840240,193.423080 280.991425,194.710464 
	C281.454041,198.649582 281.411224,202.648071 281.573853,207.064026 
z"/>
<path fill="#02B38F" opacity="1.000000" stroke="none" 
	d="
M263.720978,220.701965 
	C263.389282,225.464966 263.074310,229.757828 262.759338,234.050674 
	C262.389740,234.339539 262.020142,234.628387 261.650543,234.917252 
	C260.785431,233.848907 259.180695,232.789719 259.167358,231.710846 
	C258.997253,217.941574 259.055206,204.169495 259.055206,190.398117 
	C259.941559,190.190933 260.827911,189.983734 261.714264,189.776550 
	C262.465820,191.265472 263.842529,192.744690 263.865784,194.244919 
	C264.000153,202.904480 263.814758,211.569000 263.720978,220.701965 
z"/>
<path fill="#02B38F" opacity="1.000000" stroke="none" 
	d="
M285.073792,229.814255 
	C285.085602,217.102707 285.085602,204.856537 285.085602,192.610352 
	C285.867706,192.375244 286.649811,192.140152 287.431915,191.905045 
	C288.263000,193.055695 289.820038,194.209915 289.814392,195.356445 
	C289.748352,208.772369 289.447388,222.187119 289.207306,235.666809 
	C283.771973,236.011917 285.342957,232.565445 285.073792,229.814255 
z"/>
<path fill="#137B52" opacity="1.000000" stroke="none" 
	d="
M210.982758,237.076233 
	C231.058487,238.305145 251.134201,239.534058 271.209930,240.762970 
	C271.173035,241.373688 271.136139,241.984421 271.099243,242.595154 
	C251.281204,241.605270 231.463165,240.615387 211.318909,239.047958 
	C210.989365,238.005692 210.986069,237.540955 210.982758,237.076233 
z"/>
<path fill="#0F8961" opacity="1.000000" stroke="none" 
	d="
M210.560272,237.025635 
	C210.986069,237.540955 210.989365,238.005692 210.974182,238.820404 
	C201.136292,238.766251 191.316879,238.362122 181.497467,237.957993 
	C181.514008,237.412430 181.530548,236.866867 181.547089,236.321304 
	C191.071396,234.304626 200.606598,236.399780 210.560272,237.025635 
z"/>
<path fill="#0A9972" opacity="1.000000" stroke="none" 
	d="
M68.530319,210.143860 
	C67.958641,210.120499 67.791466,210.074722 67.365158,210.016937 
	C69.051270,208.651520 70.821449,206.797653 72.976440,206.043808 
	C78.249580,204.199173 83.700485,202.862732 89.329269,201.984955 
	C84.042816,208.379395 75.876091,207.776718 68.530319,210.143860 
z"/>
<path fill="#04AC88" opacity="1.000000" stroke="none" 
	d="
M78.921448,185.257385 
	C78.738983,183.492554 78.646133,182.161118 78.397171,180.859528 
	C77.520569,176.276505 79.745621,175.709274 83.513084,176.796616 
	C82.808289,182.497833 82.123863,188.034317 81.439430,193.570816 
	C80.763710,193.558289 80.087990,193.545761 79.412262,193.533249 
	C79.254669,190.923645 79.097069,188.314056 78.921448,185.257385 
z"/>
<path fill="#137B52" opacity="1.000000" stroke="none" 
	d="
M113.505272,199.109528 
	C113.051170,198.273895 113.038071,197.472076 113.077881,196.272552 
	C123.150261,195.143845 133.169739,194.412827 143.602539,193.965790 
	C143.992264,194.475784 143.968643,194.701767 143.945038,194.927750 
	C133.945450,196.332947 123.945862,197.738144 113.505272,199.109528 
z"/>
<path fill="#09B693" opacity="1.000000" stroke="none" 
	d="
M190.743439,140.642334 
	C191.032104,136.900787 193.108795,134.764236 196.823837,134.957596 
	C200.680145,135.158310 202.221283,137.682861 202.224777,141.729218 
	C198.504532,141.705811 194.840424,141.268616 190.743439,140.642334 
z"/>
<path fill="#04AC88" opacity="1.000000" stroke="none" 
	d="
M91.489532,161.802979 
	C90.515388,160.269821 89.840446,158.491806 89.149216,156.670868 
	C99.744919,154.835815 100.885750,155.214417 100.847946,160.227493 
	C97.832008,160.670486 94.810379,161.114304 91.489532,161.802979 
z"/>
<path fill="#22491B" opacity="1.000000" stroke="none" 
	d="
M302.002441,242.996948 
	C309.131073,243.299744 316.259674,243.602524 323.388306,243.905319 
	C323.367950,244.513062 323.347565,245.120804 323.327209,245.728561 
	C316.420013,245.370163 309.512787,245.011765 302.302002,244.099365 
	C301.999786,243.362549 302.001129,243.179749 302.002441,242.996948 
z"/>
<path fill="#1D5A2D" opacity="1.000000" stroke="none" 
	d="
M144.362396,194.952911 
	C143.968643,194.701767 143.992264,194.475784 144.059021,193.907196 
	C148.127823,192.748184 152.153488,191.931747 156.696182,191.320007 
	C157.464325,192.005371 157.715439,192.486023 157.966553,192.966675 
	C153.570969,193.637131 149.175369,194.307602 144.362396,194.952911 
z"/>
<path fill="#1D5A2D" opacity="1.000000" stroke="none" 
	d="
M301.675781,242.862793 
	C302.001129,243.179749 301.999786,243.362549 301.992798,243.820618 
	C297.528473,243.975800 293.069824,243.855682 288.292236,243.194626 
	C287.974976,242.454620 287.976562,242.255554 287.978180,242.056473 
	C292.435150,242.280533 296.892120,242.504593 301.675781,242.862793 
z"/>
<path fill="#22491B" opacity="1.000000" stroke="none" 
	d="
M158.387909,192.980865 
	C157.715439,192.486023 157.464325,192.005371 157.099533,191.277283 
	C160.414734,190.678207 163.843628,190.326538 167.272507,189.974869 
	C167.343475,190.476028 167.414444,190.977173 167.485428,191.478333 
	C164.593369,191.983902 161.701309,192.489471 158.387909,192.980865 
z"/>
<path fill="#19673C" opacity="1.000000" stroke="none" 
	d="
M287.524719,242.030594 
	C287.976562,242.255554 287.974976,242.454620 287.953003,242.954681 
	C283.112640,243.255676 278.292603,243.255676 273.472565,243.255676 
	C273.481262,242.625488 273.489960,241.995300 273.498657,241.365112 
	C278.022858,241.578308 282.547028,241.791504 287.524719,242.030594 
z"/>
<path fill="#03AF8B" opacity="1.000000" stroke="none" 
	d="
M60.027847,184.152908 
	C60.530739,185.622147 60.693348,187.026764 60.855961,188.431381 
	C60.387505,188.474411 59.919052,188.517441 59.450596,188.560455 
	C59.295959,187.301544 59.141319,186.042618 58.993713,184.390884 
	C59.229691,184.028152 59.458633,184.058212 60.027847,184.152908 
z"/>
<path fill="#03AF8B" opacity="1.000000" stroke="none" 
	d="
M62.168331,205.790710 
	C61.111382,203.867035 60.452980,201.820328 63.857063,201.068268 
	C63.611431,202.593811 63.046562,204.116043 62.168331,205.790710 
z"/>
<path fill="#ECECE8" opacity="1.000000" stroke="none" 
	d="
M807.321167,266.244690 
	C805.335449,267.807983 803.420654,268.992035 800.505615,270.794617 
	C800.505615,265.713776 800.505615,262.360687 800.505615,258.993164 
	C806.512390,257.408722 807.732361,258.619324 807.321167,266.244690 
z"/>
<path fill="#F1F1EE" opacity="1.000000" stroke="none" 
	d="
M480.482788,267.463318 
	C478.393250,268.494171 476.510620,269.137390 474.112671,269.956696 
	C474.112671,265.709473 474.112671,262.320679 474.112671,258.935455 
	C480.432648,257.544128 481.595520,258.992706 480.482788,267.463318 
z"/>
<path fill="#ECECE8" opacity="1.000000" stroke="none" 
	d="
M747.059814,271.173309 
	C747.789246,268.109131 748.452515,265.453186 749.115784,262.797241 
	C749.366821,262.818604 749.617798,262.839935 749.868835,262.861298 
	C750.658691,266.520844 751.448486,270.180389 752.386047,274.524261 
	C749.975159,273.617554 746.533203,276.606262 747.059814,271.173309 
z"/>
<path fill="#03BB98" opacity="1.000000" stroke="none" 
	d="
M213.816864,136.011658 
	C212.633224,132.960663 211.041611,130.203766 210.933105,127.389671 
	C210.651962,120.099899 210.864929,112.777962 211.184464,105.482162 
	C211.455261,99.299133 215.190628,95.056686 220.122879,91.884567 
	C221.082413,91.267448 222.955154,91.428162 224.139343,91.900414 
	C238.162949,97.493027 250.089706,105.961418 258.958252,118.309052 
	C260.004242,119.765373 260.359589,122.340385 259.922607,124.124298 
	C258.522919,129.838348 254.539536,133.651077 249.199387,135.749191 
	C243.960800,137.807404 238.501602,139.297104 233.176651,141.144272 
	C225.711044,143.734024 219.510269,141.582520 213.816864,136.011658 
z"/>
<path fill="#253D0D" opacity="1.000000" stroke="none" 
	d="
M135.388428,286.743591 
	C134.539581,283.106445 134.075409,279.392548 133.611237,275.678650 
	C134.067078,275.465179 134.522934,275.251709 134.978775,275.038239 
	C137.398361,276.785889 139.817947,278.533508 143.030533,280.853943 
	C140.253372,283.078339 138.013229,284.872589 135.388428,286.743591 
z"/>
<path fill="#253D0D" opacity="1.000000" stroke="none" 
	d="
M169.420258,270.712280 
	C163.594788,272.342194 162.747375,271.724030 162.790741,266.186157 
	C162.805557,264.293060 162.979599,262.401215 163.080902,260.508820 
	C163.698532,260.305542 164.316177,260.102264 164.933823,259.899017 
	C166.494064,263.397186 168.054321,266.895386 169.420258,270.712280 
z"/>
<path fill="#253D0D" opacity="1.000000" stroke="none" 
	d="
M163.022675,296.110199 
	C162.973969,287.342010 162.973969,287.342010 170.304520,286.216766 
	C168.457520,290.016510 166.890106,293.347412 165.163788,296.593781 
	C165.023529,296.857544 163.796188,296.543213 163.022675,296.110199 
z"/>
<path fill="#234617" opacity="1.000000" stroke="none" 
	d="
M148.208389,265.998413 
	C146.104675,265.077240 144.399612,264.184113 141.497284,262.663879 
	C144.625168,260.663269 146.811386,259.264954 148.997589,257.866638 
	C149.445938,258.097443 149.894272,258.328247 150.342621,258.559052 
	C149.764084,261.048187 149.185562,263.537354 148.208389,265.998413 
z"/>
<path fill="#244112" opacity="1.000000" stroke="none" 
	d="
M145.468018,277.863708 
	C144.149155,276.102966 143.227524,274.446869 142.305893,272.790771 
	C143.993195,272.704712 145.915176,272.085663 147.296677,272.694031 
	C148.493790,273.221161 149.078094,275.139954 149.933243,276.443634 
	C148.577240,276.951843 147.221252,277.460083 145.468018,277.863708 
z"/>
<path fill="#244112" opacity="1.000000" stroke="none" 
	d="
M144.489319,288.900208 
	C143.861755,288.340363 143.261444,287.707428 143.350220,287.588409 
	C144.778168,285.673798 146.293839,283.824646 147.789581,281.960602 
	C148.539185,282.622772 149.927292,283.282227 149.930115,283.947601 
	C149.943909,287.185211 148.272430,289.088684 144.489319,288.900208 
z"/>
<path fill="#244112" opacity="1.000000" stroke="none" 
	d="
M150.018341,297.392029 
	C150.032593,299.381287 150.032593,300.969543 150.032593,303.349548 
	C147.223221,301.882263 145.143234,300.795929 142.257782,299.288879 
	C144.661118,297.679749 146.203247,296.478699 147.919479,295.629486 
	C148.297272,295.442535 149.292953,296.504303 150.018341,297.392029 
z"/>
<path fill="#244112" opacity="1.000000" stroke="none" 
	d="
M156.382492,289.699646 
	C155.775909,291.106506 155.248337,292.151581 154.720764,293.196655 
	C154.226913,293.085083 153.733078,292.973480 153.239227,292.861877 
	C153.239227,290.230286 153.239227,287.598724 153.239227,284.967133 
	C153.850006,284.883636 154.460800,284.800171 155.071579,284.716675 
	C155.534882,286.257080 155.998199,287.797455 156.382492,289.699646 
z"/>
<path fill="#244112" opacity="1.000000" stroke="none" 
	d="
M161.757660,281.292786 
	C159.490311,283.409332 157.663376,283.010742 157.145309,280.448456 
	C156.938156,279.423889 158.496994,278.042267 159.251953,276.823151 
	C160.152405,278.196960 161.052856,279.570770 161.757660,281.292786 
z"/>
<path fill="#244112" opacity="1.000000" stroke="none" 
	d="
M153.063263,274.146790 
	C152.878235,271.561707 152.878235,269.340942 152.878235,267.120209 
	C153.693893,267.075836 154.509552,267.031464 155.325211,266.987122 
	C155.521072,269.292084 155.783325,271.596741 155.794983,273.902649 
	C155.795990,274.101166 154.136459,274.308105 153.063263,274.146790 
z"/>
<path fill="#234617" opacity="1.000000" stroke="none" 
	d="
M37.783577,289.521179 
	C37.201923,287.153076 36.968136,284.931610 36.592098,281.358398 
	C38.754349,282.818756 41.038403,283.944641 40.916920,284.350555 
	C40.353737,286.232300 39.123081,287.914276 37.783577,289.521179 
z"/>
<path fill="#03AF8B" opacity="1.000000" stroke="none" 
	d="
M61.531445,195.673630 
	C61.592941,196.439056 61.440865,196.982208 61.288788,197.525375 
	C60.934002,197.323929 60.579212,197.122467 60.224426,196.921021 
	C60.588909,196.431137 60.953388,195.941254 61.531445,195.673630 
z"/>
</svg>