<?xml version="1.0" encoding="UTF-8"?>
<svg width="300" height="110" viewBox="0 0 300 110" fill="none" xmlns="http://www.w3.org/2000/svg" role="img" aria-label="green Carz logo">
  <defs>
    <style>
      .brand { fill: #6B8E23; }
      .brand-stroke { stroke: #6B8E23; }
    </style>
  </defs>

  <path class="brand-stroke" d="M55 10c15-10 35-10 50 0l48 34c26 18 26 54 0 72l-48 34c-15 10-35 10-50 0L7 116c-26-18-26-54 0-72L55 10z" stroke-width="3" fill="none" transform="translate(5,-13) scale(0.8)"/>

  <g transform="translate(40,18) scale(0.85)">
    <path class="brand" d="M50 42c4-6 12-10 20-10h20c8 0 16 4 20 10l8 10c2 3 0 6-3 6H45c-3 0-5-3-3-6l8-10z"/>
    <path class="brand" d="M70 38h20c8 0 16 4 22 10l10 10H38l10-10c6-6 14-10 22-10z" opacity=".2"/>
    <rect x="60" y="40" width="12" height="6" rx="2" class="brand"/>
    <rect x="88" y="40" width="12" height="6" rx="2" class="brand"/>
    <circle cx="66" cy="62" r="5" class="brand"/>
    <circle cx="94" cy="62" r="5" class="brand"/>
  </g>

  <text x="170" y="70" text-anchor="middle" font-family="Inter, ui-sans-serif, system-ui" font-size="28" font-weight="800" class="brand" letter-spacing="4">GREEN CARZ</text>
</svg>


