<svg version="1.1" id="Layer_1" xmlns="http://www.w3.org/2000/svg" xmlns:xlink="http://www.w3.org/1999/xlink" x="0px" y="0px"
	 width="100%" viewBox="0 0 427 342" enable-background="new 0 0 427 342" xml:space="preserve">
<path fill="#FEFEFE" opacity="1.000000" stroke="none" 
	d="
M254.000000,343.000000 
	C169.333359,343.000000 85.166718,343.000000 1.000057,343.000000 
	C1.000038,229.000061 1.000038,115.000114 1.000019,1.000133 
	C143.333237,1.000089 285.666473,1.000089 427.999756,1.000044 
	C427.999847,114.999870 427.999847,228.999741 427.999939,342.999817 
	C370.166656,343.000000 312.333344,343.000000 254.000000,343.000000 
M338.092163,334.706055 
	C345.280945,335.108093 352.469727,335.510132 360.334869,335.949982 
	C360.019958,332.278015 360.576141,327.615112 359.416565,327.140015 
	C353.916687,324.886658 357.449310,321.042969 356.542908,317.819153 
	C360.954010,317.182373 362.934326,318.735626 362.899780,322.816284 
	C362.865021,326.924377 362.892181,331.032990 362.892181,335.335754 
	C368.892731,335.335754 374.327209,335.335754 380.211182,335.335754 
	C380.421143,327.598328 378.312286,320.966949 373.588196,315.014069 
	C378.342957,311.171387 378.905853,305.932831 377.431854,300.246948 
	C376.181335,295.423157 372.494293,292.846313 367.936493,292.667236 
	C358.026550,292.277893 348.090698,292.547058 337.625183,292.547058 
	C337.977631,295.629547 337.408569,299.970917 338.781219,300.711060 
	C341.609161,302.235840 340.924866,304.110291 340.976562,306.048035 
	C341.087585,310.209869 340.838501,314.386017 341.062103,318.538757 
	C341.261017,322.232391 341.086761,325.660126 337.150269,328.398132 
	C335.472443,325.767670 333.153259,323.341370 332.238556,320.468018 
	C329.622559,312.250427 327.653564,303.828857 325.225769,295.547394 
	C324.852814,294.275238 323.445435,292.417480 322.438416,292.366302 
	C316.504547,292.064728 310.547577,292.217834 304.548523,292.217834 
	C302.941528,298.111694 301.455811,303.544739 299.979462,308.980286 
	C298.543396,314.267609 297.229828,319.591614 295.645020,324.833801 
	C294.647522,328.133240 293.249847,331.311707 291.766357,335.248627 
	C299.441895,335.248627 305.504150,335.248627 311.865631,335.248627 
	C311.865631,333.117432 311.998810,331.289062 311.813538,329.493561 
	C311.709625,328.486572 311.123108,327.512878 310.672913,326.562683 
	C310.211884,325.589630 309.651794,324.663483 309.135071,323.716827 
	C311.114441,323.306091 313.085968,322.674713 315.077393,322.604218 
	C315.774994,322.579529 316.593872,323.880066 317.200531,324.692566 
	C317.377197,324.929199 317.151123,325.844147 316.873688,325.985748 
	C312.372314,328.283112 315.363403,332.007629 314.475525,336.424713 
	C322.832184,335.475708 330.463531,334.609100 338.092163,334.706055 
M100.885544,329.410217 
	C98.889595,324.610748 96.893654,319.811310 94.716957,314.577209 
	C98.921890,311.097717 99.542480,305.681824 97.847069,299.863739 
	C96.392448,294.872009 92.260704,292.649170 87.582329,292.468964 
	C77.988800,292.099457 68.371078,292.358032 58.314411,292.358032 
	C59.113804,295.922546 55.900566,299.942780 61.035503,302.030701 
	C61.444733,302.197113 61.496819,303.550964 61.501511,304.354218 
	C61.538460,310.683228 61.537937,317.012634 61.506382,323.341705 
	C61.502377,324.144928 61.488041,325.489502 61.080147,325.666748 
	C56.193844,327.790436 58.969109,331.763306 58.355976,335.253479 
	C65.925812,335.253479 73.147499,335.253479 80.809425,335.253479 
	C80.654556,332.304779 81.259605,327.794037 80.257309,327.402954 
	C74.716362,325.241089 77.802567,321.154266 77.115295,317.910126 
	C82.314323,317.739136 83.134789,318.361237 83.243324,322.798920 
	C83.343674,326.902100 83.264694,331.009644 83.264694,335.574493 
	C88.149658,335.574493 92.457893,335.375519 96.737808,335.638092 
	C100.097343,335.844208 101.292000,334.484863 101.924179,332.136536 
	C102.945717,333.266968 103.948219,335.359833 104.991699,335.380463 
	C116.756538,335.613159 128.527664,335.527832 140.395966,335.527832 
	C140.395966,329.550293 140.395966,324.169678 140.395966,318.636658 
	C136.308014,318.636658 132.559387,318.636658 128.534592,318.636658 
	C128.341949,321.282166 128.167130,323.682770 127.993797,326.062927 
	C125.769913,326.062927 123.891418,326.062927 121.974663,326.062927 
	C121.974663,322.776306 121.974663,319.842896 121.974663,316.920990 
	C123.577644,316.537567 124.948837,316.209564 126.511108,315.835876 
	C126.408241,313.945679 126.321022,312.343018 126.233475,310.734314 
	C124.557365,310.377136 123.196823,310.087189 122.048866,309.842560 
	C122.048866,306.795135 122.048866,304.195282 122.048866,301.506744 
	C124.135963,301.506744 125.906670,301.506744 127.971115,301.506744 
	C128.159470,304.081940 128.335831,306.493195 128.522125,309.040222 
	C132.674789,309.040222 136.579056,309.040222 140.354218,309.040222 
	C140.354218,303.295471 140.354218,297.885010 140.354218,292.546692 
	C127.732277,292.546692 115.492264,292.546692 102.996590,292.546692 
	C103.665283,296.097900 101.688171,299.285187 105.566040,302.495483 
	C107.490219,304.088409 106.105331,309.750793 106.111168,313.572296 
	C106.120590,319.737854 107.469429,326.335968 100.885544,329.410217 
M83.559494,180.197311 
	C81.093765,181.800385 76.730782,180.465973 75.978569,185.785034 
	C75.695816,187.589890 75.541145,189.426117 75.108147,191.194183 
	C73.220947,198.900146 71.087074,206.551117 69.440605,214.306503 
	C69.068695,216.058289 70.290962,218.148529 70.977295,220.866730 
	C70.684845,228.193832 69.290909,236.589279 70.237038,244.712173 
	C72.487968,264.037231 77.858490,271.618713 96.933411,270.106903 
	C101.284416,269.762024 104.316513,268.306671 106.103775,264.524139 
	C107.300659,261.991119 108.459755,259.323120 108.942017,256.592987 
	C110.085754,250.118042 110.816521,243.570175 111.716026,237.038574 
	C120.589958,236.588043 129.379639,236.141800 138.572281,235.675079 
	C137.846466,246.385406 139.903610,256.298981 144.739395,265.227875 
	C152.601776,279.745087 177.612045,288.901398 193.431747,283.706238 
	C210.191147,278.202545 219.826340,266.199768 222.826385,249.310776 
	C223.884201,243.355804 226.026108,242.523132 231.256439,242.527237 
	C238.044739,242.532593 244.728577,242.867538 250.140900,247.016586 
	C254.321152,250.221115 258.411530,252.423309 263.671143,251.792740 
	C267.628448,251.318298 269.468994,253.138748 271.040192,256.681763 
	C275.843933,267.514282 283.393127,275.453491 295.406525,278.465210 
	C320.385834,284.727509 339.193207,273.023926 344.343201,247.954437 
	C346.210999,238.862228 344.109467,230.368225 340.507446,221.656967 
	C342.805328,221.795258 344.638275,221.742020 346.412628,222.038879 
	C357.968292,223.972321 354.940094,223.507568 356.878845,213.608917 
	C357.498596,210.444458 356.311859,209.051147 353.052856,208.775726 
	C348.415161,208.383804 343.802765,207.650681 339.203125,206.915726 
	C338.755188,206.844147 338.472443,205.738403 338.765839,204.854446 
	C339.899994,202.630524 341.034149,200.406601 343.006561,198.110031 
	C344.498749,198.130310 346.158630,198.566101 347.434692,198.050964 
	C348.648163,197.561081 350.293152,196.098267 350.319946,195.027481 
	C350.579803,184.647125 345.988586,178.549667 336.679230,175.214600 
	C337.600922,170.822723 338.473969,166.419647 339.480103,162.047195 
	C339.716949,161.017853 340.301544,160.022980 340.906097,159.134674 
	C341.764191,157.873810 343.583771,156.748245 343.617310,155.527054 
	C343.895813,145.397476 343.891571,135.259048 343.861786,125.123634 
	C343.858826,124.113441 343.261719,123.012383 342.686066,122.116943 
	C341.677734,120.548393 339.956207,119.266647 339.434784,117.585220 
	C336.534180,108.232216 333.889557,98.799454 331.204468,89.380547 
	C330.917114,88.372643 330.837982,87.278442 330.832428,86.223381 
	C330.823761,84.577301 331.632965,82.531448 330.929871,81.346962 
	C325.257324,71.790955 319.311859,62.396950 313.449738,52.953468 
	C312.984314,53.508522 312.518921,54.063572 312.053497,54.618626 
	C310.605957,54.090385 308.855652,53.915684 307.759644,52.976994 
	C300.190033,46.493809 292.756836,39.851376 285.279907,33.259956 
	C284.540039,32.607712 283.079407,31.816324 283.173798,31.323057 
	C284.075958,26.608358 280.009705,25.941063 277.445312,24.687613 
	C269.391418,20.750921 261.117584,17.262604 252.907150,13.650140 
	C252.021255,13.260365 250.346268,12.737803 250.128586,13.046453 
	C247.188217,17.215734 243.913544,13.816866 240.898331,13.481431 
	C232.640076,12.562725 224.414429,11.352489 216.173050,10.279220 
	C215.024155,10.129601 213.099045,10.494630 212.820221,9.955652 
	C210.155273,4.804137 205.495834,6.980017 201.928986,7.356185 
	C192.705627,8.328899 183.569611,10.129795 174.398727,11.599981 
	C174.659073,12.072643 174.919418,12.545306 175.179764,13.017969 
	C174.149643,14.143892 173.332397,15.721387 172.055298,16.323404 
	C162.892822,20.642590 153.636551,24.762777 144.411179,28.948620 
	C143.509338,29.357815 142.123535,30.382917 141.791870,30.110863 
	C137.628342,26.695732 135.491577,30.941448 133.172806,32.651295 
	C128.230377,36.295822 123.401939,40.235390 119.191139,44.683029 
	C116.310150,47.726067 110.442230,49.482269 112.691498,55.750084 
	C112.817436,56.101021 111.952858,56.780289 111.594833,57.336067 
	C105.932549,66.125908 100.289902,74.928467 94.599091,83.699776 
	C94.121017,84.436630 93.384712,85.041603 92.673645,85.583557 
	C91.501053,86.477264 89.500328,87.032875 89.151047,88.141373 
	C86.009453,98.111649 83.114708,108.160957 80.281067,118.224670 
	C80.050041,119.045143 80.766388,120.158211 81.113571,121.109390 
	C81.598259,122.437271 82.587173,123.735405 82.603195,125.055466 
	C82.724068,135.012833 82.656647,144.972443 82.656815,154.931366 
	C82.656830,155.920135 83.036987,157.639297 82.698769,157.788162 
	C77.613106,160.026550 80.987549,163.806992 81.288612,166.658951 
	C81.755539,171.082184 83.192902,175.403000 83.559494,180.197311 
M212.404251,305.048859 
	C210.132294,301.564026 207.959885,298.007385 205.529968,294.636414 
	C204.763763,293.573517 203.332794,292.368286 202.163132,292.322388 
	C196.215088,292.088959 190.252914,292.214752 183.284042,292.214752 
	C185.116608,295.668457 181.179108,299.811859 186.465622,301.764709 
	C186.519119,309.840363 186.572617,317.916046 186.626129,325.991699 
	C181.187576,327.787750 184.770233,331.993622 183.818176,335.151855 
	C190.393387,335.151855 196.583206,335.151855 203.056320,335.151855 
	C202.414673,331.512207 203.692032,328.578156 200.392563,325.194275 
	C198.213516,322.959442 199.980072,316.877502 199.980072,311.130920 
	C205.058228,318.952606 209.321518,325.622223 213.718140,332.202759 
	C214.579575,333.492065 215.886475,335.286316 217.109543,335.388275 
	C221.665939,335.768005 226.272995,335.539856 231.109070,335.539856 
	C231.109070,325.194122 231.096085,315.550323 231.124420,305.906616 
	C231.128250,304.601868 230.945465,302.381805 231.516281,302.136169 
	C236.734344,299.891022 233.809189,295.899078 234.195221,292.541382 
	C227.766266,292.541382 221.705673,292.541382 215.200485,292.541382 
	C215.354156,295.499756 214.642776,298.586731 215.791626,300.625336 
	C218.688873,305.766541 219.309723,307.241455 217.515915,312.836395 
	C215.862793,310.301208 214.343216,307.970856 212.404251,305.048859 
M52.068695,333.481354 
	C52.534584,331.335388 53.077236,329.202362 53.441086,327.039246 
	C53.712280,325.426941 53.496750,323.700348 53.951683,322.158539 
	C54.743382,319.475372 55.885212,316.895508 57.085648,313.730896 
	C49.511692,313.730896 43.325378,313.730896 36.509739,313.730896 
	C36.967266,316.552551 37.257736,318.917572 37.765881,321.234894 
	C38.018585,322.387268 39.350147,324.049164 39.007866,324.438751 
	C38.157471,325.406647 36.500446,326.428131 35.400650,326.216339 
	C34.104706,325.966858 32.104965,324.489136 32.053005,323.460968 
	C31.734299,317.154816 31.723442,310.817841 32.020592,304.510437 
	C32.072441,303.409790 33.930080,301.853210 35.217529,301.516724 
	C36.320538,301.228485 38.192482,302.049164 39.007805,302.996277 
	C39.864941,303.991974 39.870708,305.720551 40.229004,307.056183 
	C44.597019,307.056183 48.858093,307.056183 53.098072,307.056183 
	C53.734478,292.586517 55.591587,294.263306 41.764465,291.566254 
	C38.711422,290.970764 35.432274,291.056549 32.312237,291.372192 
	C23.005440,292.313904 17.660112,296.813324 15.421272,305.165192 
	C12.480663,316.134979 15.215470,328.045868 21.992607,332.778137 
	C23.857130,334.080048 26.099779,335.051117 28.311447,335.607239 
	C36.150791,337.578400 43.831501,336.601349 52.068695,333.481354 
M149.720383,292.205872 
	C147.795532,292.205872 145.870682,292.205872 143.510254,292.205872 
	C144.298080,296.008240 141.390137,300.002686 146.343246,302.072418 
	C146.736359,302.236664 146.740433,303.587158 146.744293,304.387238 
	C146.774811,310.711121 146.772141,317.035248 146.748138,323.359192 
	C146.745056,324.167694 146.797073,325.542847 146.424301,325.698364 
	C141.076462,327.929199 144.269547,331.953400 143.792770,335.569397 
	C155.594681,335.569397 166.894180,335.574524 178.193665,335.558655 
	C178.999023,335.557526 179.804153,335.402740 180.849518,335.294556 
	C180.849518,329.707977 180.849518,324.306213 180.849518,318.771179 
	C176.820847,318.771179 172.977463,318.771179 169.059769,318.771179 
	C168.921478,321.452576 168.804031,323.729706 168.678314,326.167267 
	C166.429199,326.167267 164.510880,326.167267 162.352539,326.167267 
	C162.352539,322.978088 162.352539,320.037445 162.352539,316.885071 
	C163.880478,316.563141 165.393280,316.244385 167.055283,315.894196 
	C166.942719,313.917908 166.851746,312.320618 166.758835,310.689209 
	C165.067154,310.390198 163.676971,310.144501 162.377258,309.914795 
	C162.377258,306.922974 162.377258,304.315155 162.377258,301.574280 
	C164.571014,301.574280 166.497772,301.574280 168.621658,301.574280 
	C168.814713,304.230164 168.989853,306.639496 169.169647,309.112946 
	C173.242462,309.112946 177.014404,309.112946 180.811859,309.112946 
	C180.811859,303.447144 180.811859,298.036224 180.811859,292.205872 
	C170.567337,292.205872 160.618149,292.205872 149.720383,292.205872 
M270.266357,324.938812 
	C270.113342,318.136230 269.817230,311.330750 269.953827,304.533966 
	C269.975555,303.451904 272.034790,301.474182 272.986542,301.569153 
	C274.377319,301.707916 276.058258,303.100769 276.796631,304.418091 
	C277.502075,305.676727 277.160126,307.522400 277.274841,309.060242 
	C281.757660,309.060242 285.841156,309.060242 290.238708,309.060242 
	C290.238708,305.612976 290.010223,302.444275 290.301819,299.324219 
	C290.604370,296.086853 289.332825,294.000000 286.329193,293.496826 
	C280.801270,292.570679 275.155273,291.204010 269.651062,291.539520 
	C260.533020,292.095367 255.147369,297.311951 253.152878,305.685425 
	C250.454178,317.015381 253.404343,328.530426 260.257874,333.129028 
	C261.489899,333.955688 262.854919,334.688446 264.263428,335.130493 
	C272.041473,337.571716 279.743958,337.020966 287.211273,333.948547 
	C288.466522,333.432007 289.975891,331.805481 290.093231,330.570770 
	C290.464142,326.667053 290.230164,322.705933 290.230164,318.631256 
	C285.544678,318.631256 281.454193,318.631256 277.397491,318.631256 
	C276.430756,326.876709 276.328064,326.983093 270.266357,324.938812 
M382.999695,299.429565 
	C382.999695,301.240082 382.999695,303.050568 382.999695,305.100708 
	C386.618622,305.100708 389.907104,305.100708 391.804688,305.100708 
	C394.165680,303.339630 395.679718,302.210297 397.193726,301.080994 
	C397.596252,301.543060 397.998779,302.005127 398.401306,302.467194 
	C393.994019,309.281250 389.322388,315.943695 385.291351,322.973480 
	C383.285736,326.471130 382.454712,330.642365 380.838074,335.230591 
	C394.370728,335.230591 406.239624,335.230591 418.116821,335.230591 
	C418.116821,330.809998 418.116821,326.745087 418.116821,322.383209 
	C415.780182,322.383209 413.783875,322.241943 411.819641,322.432007 
	C410.473175,322.562286 408.121185,322.967926 408.015228,323.567810 
	C407.147766,328.478516 404.200256,325.812775 400.864197,326.437927 
	C406.255005,318.047119 410.789307,310.711975 415.623718,303.580261 
	C418.092468,299.938354 418.214508,296.326172 417.170624,292.436340 
	C405.758148,292.436340 394.651886,292.436340 382.999695,292.436340 
	C382.999695,294.608887 382.999695,296.553040 382.999695,299.429565 
z"/>
<path fill="#2A3303" opacity="1.000000" stroke="none" 
	d="
M336.369812,175.982574 
	C345.988586,178.549667 350.579803,184.647125 350.319946,195.027481 
	C350.293152,196.098267 348.648163,197.561081 347.434692,198.050964 
	C346.158630,198.566101 344.498749,198.130310 342.448669,197.784286 
	C341.551147,196.220963 341.545349,194.707016 340.799347,193.805862 
	C339.430847,192.152908 337.404205,189.520737 336.056396,189.743530 
	C334.186890,190.052521 331.830261,192.336533 331.195038,194.271591 
	C329.261230,200.162430 332.128296,204.232651 338.113037,205.112701 
	C338.472443,205.738403 338.755188,206.844147 339.203125,206.915726 
	C343.802765,207.650681 348.415161,208.383804 353.052856,208.775726 
	C356.311859,209.051147 357.498596,210.444458 356.878845,213.608917 
	C354.940094,223.507568 357.968292,223.972321 346.412628,222.038879 
	C344.638275,221.742020 342.805328,221.795258 340.507446,221.656967 
	C344.109467,230.368225 346.210999,238.862228 344.343201,247.954437 
	C339.193207,273.023926 320.385834,284.727509 295.406525,278.465210 
	C283.393127,275.453491 275.843933,267.514282 271.040192,256.681763 
	C269.468994,253.138748 267.628448,251.318298 263.671143,251.792740 
	C258.411530,252.423309 254.321152,250.221115 250.140900,247.016586 
	C244.728577,242.867538 238.044739,242.532593 231.256439,242.527237 
	C226.026108,242.523132 223.884201,243.355804 222.826385,249.310776 
	C219.826340,266.199768 210.191147,278.202545 193.431747,283.706238 
	C177.612045,288.901398 152.601776,279.745087 144.739395,265.227875 
	C139.903610,256.298981 137.846466,246.385406 138.572281,235.675079 
	C129.379639,236.141800 120.589958,236.588043 111.716026,237.038574 
	C110.816521,243.570175 110.085754,250.118042 108.942017,256.592987 
	C108.459755,259.323120 107.300659,261.991119 106.103775,264.524139 
	C104.316513,268.306671 101.284416,269.762024 96.933411,270.106903 
	C77.858490,271.618713 72.487968,264.037231 70.237038,244.712173 
	C69.290909,236.589279 70.684845,228.193832 70.977295,220.866730 
	C70.290962,218.148529 69.068695,216.058289 69.440605,214.306503 
	C71.087074,206.551117 73.220947,198.900146 75.108147,191.194183 
	C75.541145,189.426117 75.695816,187.589890 76.438362,185.337143 
	C80.756798,183.731995 84.615448,182.574738 89.044205,181.246490 
	C87.359749,180.003296 86.600410,179.442886 85.857780,178.437622 
	C86.976845,165.955887 87.987808,153.909576 89.226044,141.886658 
	C89.729584,136.997406 92.139099,133.214249 96.755112,130.929108 
	C104.919701,126.887276 112.997269,122.670052 121.132141,118.567650 
	C125.605331,116.311813 131.015945,115.160141 132.145050,109.385757 
	C132.505692,111.763901 132.768311,113.742836 133.005203,115.724838 
	C134.959702,132.077255 136.929993,148.427841 138.833954,164.786133 
	C139.065430,166.774857 139.154755,168.582138 142.358215,167.897720 
	C147.257187,167.291336 151.729721,166.624100 156.202240,165.956863 
	C156.154633,165.549316 156.107010,165.141754 156.059387,164.734207 
	C151.417664,165.094971 146.775940,165.455734 142.095901,165.448303 
	C142.204391,161.353928 144.189194,159.381119 147.819824,158.738632 
	C158.280029,156.887589 168.730957,154.982468 179.170792,153.020203 
	C180.535477,152.763687 181.813965,152.048660 183.132385,151.546021 
	C182.016983,150.216309 181.134567,149.872391 180.226212,149.777985 
	C170.475906,148.764526 160.721024,147.795135 150.968353,146.804291 
	C141.512787,145.843658 139.822784,144.206345 138.905212,135.055695 
	C138.176132,127.784752 137.450195,120.513184 136.788940,113.235893 
	C136.515381,110.225502 135.803482,107.899200 131.899200,108.724182 
	C133.424698,108.153343 135.031799,107.912354 137.086517,107.775002 
	C147.336411,109.174904 157.138687,110.471176 167.342758,111.874237 
	C177.049942,113.320305 186.355347,114.659576 196.013916,116.208069 
	C200.203583,116.840012 204.040070,117.262741 208.279236,117.800888 
	C211.784668,118.323128 214.887421,118.729942 218.309845,119.358055 
	C223.049683,120.213936 227.458481,120.947731 231.893127,121.456055 
	C236.613693,121.997147 239.735809,124.287781 241.607162,128.744843 
	C243.261047,132.683899 245.444809,136.400467 247.454529,140.601868 
	C249.284775,143.536606 250.678879,147.848099 252.892090,148.320267 
	C261.379700,150.131058 270.130188,150.709595 279.194550,151.878281 
	C284.318329,152.915482 289.030121,153.822372 294.063324,154.972641 
	C299.868652,156.476898 305.341278,157.789780 310.839722,158.983856 
	C316.200012,160.147934 320.254059,163.156799 321.201721,168.525040 
	C322.302063,174.758286 326.323517,175.774139 331.397644,175.892822 
	C333.054840,175.931580 334.712402,175.953140 336.369812,175.982574 
M283.601868,205.597900 
	C294.283234,206.112411 304.964630,206.626923 315.645996,207.141434 
	C315.652466,206.890106 315.658905,206.638794 315.665375,206.387482 
	C304.772675,205.603607 293.880005,204.819733 282.077179,203.979080 
	C275.987366,203.618103 269.897583,203.257141 263.807770,202.896179 
	C263.771515,203.607040 263.735260,204.317917 263.699005,205.028778 
	C270.130829,205.028778 276.562683,205.028778 283.601868,205.597900 
M218.675079,201.887177 
	C228.623276,202.458527 238.571472,203.029877 248.519684,203.601227 
	C248.549210,202.993027 248.578735,202.384842 248.608261,201.776657 
	C238.399490,201.205093 228.190704,200.633545 217.103149,199.959793 
	C212.983398,199.647659 208.867935,199.249084 204.742859,199.044098 
	C198.872284,198.752380 198.869263,198.813110 199.384903,205.366486 
	C199.993774,200.247375 203.360397,200.959686 206.516006,201.120239 
	C210.317291,201.313675 214.122864,201.423264 218.675079,201.887177 
M98.912132,173.242310 
	C98.784195,172.491455 98.656265,171.740616 98.885307,170.309418 
	C99.840088,168.210175 101.328453,166.184631 101.630859,163.995270 
	C102.149811,160.238251 101.771507,156.367218 102.055763,152.565414 
	C102.436798,147.469086 103.089912,142.393082 103.675606,136.839920 
	C98.545158,137.631561 96.058495,139.588638 95.944199,143.752655 
	C95.864326,146.662552 96.387711,149.620789 96.043465,152.485550 
	C95.123398,160.142166 94.090080,167.799835 92.649887,175.371140 
	C92.163712,177.926987 92.649666,178.709732 95.667122,178.891876 
	C96.376259,177.923676 97.085388,176.955475 98.101364,175.491501 
	C98.347084,174.996277 98.592804,174.501053 98.912132,173.242310 
M83.821609,241.061417 
	C82.971848,235.213638 82.627724,229.228424 81.089104,223.567886 
	C80.113075,219.977081 76.921974,219.980804 75.563148,223.443146 
	C71.645691,233.424957 71.787712,243.604752 75.673950,253.565186 
	C77.016022,257.004913 79.905403,257.012054 81.392632,253.659363 
	C82.576843,250.989777 82.915024,247.944870 83.813538,244.287567 
	C83.710251,243.494949 83.606964,242.702316 83.821609,241.061417 
M191.861542,224.952194 
	C188.843033,217.063889 184.200607,210.669312 175.152451,209.693390 
	C166.453094,208.755096 160.103409,213.293396 155.644577,220.291733 
	C149.111618,230.545486 148.186096,241.577408 153.152802,252.668472 
	C159.882675,267.696930 176.969360,269.325531 186.809982,256.114563 
	C193.687958,246.880936 194.612762,236.615967 191.861542,224.952194 
M230.738968,173.320419 
	C231.358841,174.494247 231.841125,175.769852 232.621613,176.824875 
	C236.760727,182.419922 242.290543,181.962555 245.635559,175.804001 
	C248.358810,170.790192 247.312805,164.069321 243.198135,160.142761 
	C238.724457,155.873611 232.069336,157.308380 230.564743,163.215256 
	C229.816116,166.154236 230.422073,169.438232 230.738968,173.320419 
M98.699791,195.868881 
	C98.446022,194.737000 98.170158,193.609543 97.942169,192.472488 
	C96.751884,186.536011 94.956100,185.573776 88.869415,187.778763 
	C90.897820,197.148895 92.964661,206.536255 94.953850,215.940033 
	C96.356758,222.572266 96.309700,222.582214 103.924225,221.373520 
	C102.237946,213.139435 100.553818,204.915863 98.699791,195.868881 
M309.600586,165.322449 
	C305.321930,166.781342 303.978882,170.395477 304.929657,174.061371 
	C305.949982,177.995514 308.241547,181.647385 310.388458,185.172699 
	C310.617554,185.548935 314.177124,184.781708 315.187469,183.649124 
	C320.431610,177.770325 317.983246,168.999374 309.600586,165.322449 
M236.985458,191.286957 
	C237.479980,195.364807 239.536728,198.658615 243.719849,198.548203 
	C245.742020,198.494812 249.000473,195.949844 249.371338,194.073013 
	C249.946655,191.161438 249.115616,187.553741 247.711609,184.847794 
	C247.021591,183.517914 242.786972,182.394760 241.770096,183.204498 
	C239.609253,184.925247 238.504349,187.972046 236.985458,191.286957 
M263.888702,170.557648 
	C262.927094,166.928787 265.965118,162.076920 260.079102,159.690933 
	C259.313354,171.679611 259.264130,183.586868 259.418610,195.491455 
	C259.429504,196.329529 260.944305,197.148056 261.759766,197.975677 
	C262.471069,197.768204 263.182343,197.560715 263.893646,197.353226 
	C263.893646,188.744247 263.893646,180.135284 263.888702,170.557648 
M296.316589,195.443726 
	C296.967224,196.903107 297.617889,198.362488 298.268524,199.821854 
	C298.826874,199.155823 299.849396,198.506516 299.874084,197.821259 
	C300.255859,187.227463 300.580963,176.629700 300.683624,166.030579 
	C300.694519,164.905472 299.226379,163.766037 298.444397,162.633240 
	C297.754547,162.875443 297.064728,163.117645 296.374908,163.359848 
	C296.374908,173.767593 296.374908,184.175354 296.316589,195.443726 
M282.102844,164.833954 
	C282.009644,174.784973 281.868500,184.736023 281.875732,194.686966 
	C281.876801,196.152328 282.581299,197.617157 282.960327,199.082245 
	C283.544922,198.959457 284.129547,198.836670 284.714142,198.713882 
	C284.965729,195.624161 285.355103,192.538300 285.442169,189.443954 
	C285.670715,181.322586 285.830505,173.197571 285.839905,165.073807 
	C285.841125,164.018494 284.796356,162.961975 284.236084,161.906036 
	C283.524963,162.576004 282.813812,163.245972 282.102844,164.833954 
M278.153961,162.492249 
	C275.918793,159.521622 274.993469,160.745529 274.908447,163.612762 
	C274.598236,174.072052 274.329193,184.533447 274.195953,194.995987 
	C274.179321,196.301041 275.068634,197.617630 275.538147,198.928879 
	C276.291382,198.853745 277.044617,198.778610 277.797852,198.703476 
	C277.458588,186.894135 279.644592,175.222855 278.153961,162.492249 
M267.103302,186.550323 
	C267.643402,190.338867 265.477966,194.636215 269.184662,199.066116 
	C269.716400,196.971710 270.126068,196.061111 270.154419,195.138779 
	C270.476135,184.672913 270.798615,174.206024 270.933899,163.736984 
	C270.948639,162.595856 269.793915,161.439636 269.181580,160.290390 
	C268.540924,161.590637 267.386841,162.874680 267.345184,164.193848 
	C267.120239,171.319122 267.170990,178.453125 267.103302,186.550323 
M255.806091,190.271149 
	C255.895935,180.782333 256.041168,171.293182 255.986237,161.805206 
	C255.980972,160.899796 254.725647,160.001617 254.050659,159.100082 
	C253.556091,160.006699 252.653473,160.902618 252.629425,161.821533 
	C252.359772,172.125092 252.167191,182.431915 252.122589,192.738602 
	C252.116486,194.150452 253.028229,195.566284 253.515060,196.980270 
	C254.249344,195.554382 255.025986,194.147827 255.691345,192.690460 
	C255.883118,192.270432 255.754684,191.704224 255.806091,190.271149 
M289.292023,186.797943 
	C289.816803,191.024414 287.488251,195.683563 291.206604,199.552963 
	C292.149506,198.030945 292.673737,196.509079 292.706726,194.976654 
	C292.910583,185.494720 293.089081,176.009979 293.042389,166.527328 
	C293.035400,165.102875 291.803619,163.684464 291.138397,162.263260 
	C290.688660,163.651611 289.906342,165.025711 289.846069,166.430771 
	C289.568237,172.904205 289.491760,179.386292 289.292023,186.797943 
M111.222580,175.749313 
	C119.629158,173.202377 119.629158,173.202377 120.973373,169.916107 
	C114.662979,171.768738 108.864990,173.470932 103.067001,175.173126 
	C103.222786,175.822556 103.378571,176.471985 103.534348,177.121414 
	C105.833199,176.732864 108.132042,176.344299 111.222580,175.749313 
M112.222755,154.290680 
	C112.578583,157.234833 112.934410,160.178970 113.290237,163.123123 
	C113.776352,163.129700 114.262466,163.136276 114.748581,163.142853 
	C115.296143,158.516815 115.843704,153.890762 116.400421,149.187317 
	C110.814545,147.054474 112.301804,150.973602 112.222755,154.290680 
M128.535736,134.923828 
	C129.624542,134.347855 130.713348,133.771866 131.802170,133.195892 
	C130.804947,132.412933 129.889526,131.132736 128.793152,130.952332 
	C126.625168,130.595596 124.357109,130.847046 121.842880,130.847046 
	C121.982262,133.287460 122.069542,134.815628 122.138359,136.020493 
	C124.228569,135.604263 125.963196,135.258835 128.535736,134.923828 
M178.577850,162.898438 
	C178.658768,162.674667 178.773392,162.454483 178.797775,162.224701 
	C178.804169,162.164490 178.525772,161.999863 178.386414,162.009018 
	C172.319183,162.407211 166.250198,162.788376 160.192642,163.303345 
	C159.805023,163.336273 159.506592,164.418518 158.739594,165.759109 
	C165.652817,164.760330 171.747223,163.879852 178.577850,162.898438 
M185.172852,161.956604 
	C185.787628,161.868256 186.402405,161.779907 187.017181,161.691559 
	C185.874359,161.114899 184.745728,161.020142 183.617676,161.026428 
	C183.086212,161.029388 182.555817,161.226395 182.024948,161.335464 
	C182.043777,161.545105 182.062607,161.754761 182.081436,161.964401 
	C182.880920,161.964401 183.680420,161.964401 185.172852,161.956604 
M85.268936,186.982803 
	C84.784821,187.098923 84.300713,187.215042 83.816597,187.331146 
	C83.912575,187.560089 84.008545,187.789017 84.104515,188.017944 
	C84.677032,187.704056 85.249550,187.390167 85.268936,186.982803 
M77.816078,189.757309 
	C77.990158,189.631454 78.164230,189.505600 78.338318,189.379761 
	C78.095169,189.406158 77.852028,189.432556 77.816078,189.757309 
M80.806290,188.213074 
	C80.868340,188.393875 80.930389,188.574677 80.992447,188.755478 
	C81.051392,188.573303 81.110336,188.391129 80.806290,188.213074 
z"/>
<path fill="#02BA97" opacity="1.000000" stroke="none" 
	d="
M336.524536,175.598587 
	C334.712402,175.953140 333.054840,175.931580 331.397644,175.892822 
	C326.323517,175.774139 322.302063,174.758286 321.201721,168.525040 
	C320.254059,163.156799 316.200012,160.147934 310.839722,158.983856 
	C305.341278,157.789780 299.868652,156.476898 294.111145,154.562561 
	C296.001526,143.162491 295.964813,132.369263 293.600250,121.719246 
	C281.411957,66.822845 220.963516,39.652924 172.011551,67.193497 
	C155.579498,76.438225 143.473053,89.847557 136.638901,107.671371 
	C135.031799,107.912354 133.424698,108.153343 131.919937,108.713318 
	C132.022278,109.032303 132.035095,108.987961 132.035095,108.987961 
	C131.015945,115.160141 125.605331,116.311813 121.132141,118.567650 
	C112.997269,122.670052 104.919701,126.887276 96.755112,130.929108 
	C92.139099,133.214249 89.729584,136.997406 89.226044,141.886658 
	C87.987808,153.909576 86.976845,165.955887 85.659973,178.569244 
	C85.036598,179.352859 84.627724,179.560043 84.218842,179.767242 
	C83.192902,175.403000 81.755539,171.082184 81.288612,166.658951 
	C80.987549,163.806992 77.613106,160.026550 82.698769,157.788162 
	C83.036987,157.639297 82.656830,155.920135 82.656815,154.931366 
	C82.656647,144.972443 82.724068,135.012833 82.603195,125.055466 
	C82.587173,123.735405 81.598259,122.437271 81.113571,121.109390 
	C80.766388,120.158211 80.050041,119.045143 80.281067,118.224670 
	C83.114708,108.160957 86.009453,98.111649 89.151047,88.141373 
	C89.500328,87.032875 91.501053,86.477264 92.673645,85.583557 
	C93.384712,85.041603 94.121017,84.436630 94.599091,83.699776 
	C100.289902,74.928467 105.932549,66.125908 111.594833,57.336067 
	C111.952858,56.780289 112.817436,56.101021 112.691498,55.750084 
	C110.442230,49.482269 116.310150,47.726067 119.191139,44.683029 
	C123.401939,40.235390 128.230377,36.295822 133.172806,32.651295 
	C135.491577,30.941448 137.628342,26.695732 141.791870,30.110863 
	C142.123535,30.382917 143.509338,29.357815 144.411179,28.948620 
	C153.636551,24.762777 162.892822,20.642590 172.055298,16.323404 
	C173.332397,15.721387 174.149643,14.143892 175.179764,13.017969 
	C174.919418,12.545306 174.659073,12.072643 174.398727,11.599981 
	C183.569611,10.129795 192.705627,8.328899 201.928986,7.356185 
	C205.495834,6.980017 210.155273,4.804137 212.820221,9.955652 
	C213.099045,10.494630 215.024155,10.129601 216.173050,10.279220 
	C224.414429,11.352489 232.640076,12.562725 240.898331,13.481431 
	C243.913544,13.816866 247.188217,17.215734 250.128586,13.046453 
	C250.346268,12.737803 252.021255,13.260365 252.907150,13.650140 
	C261.117584,17.262604 269.391418,20.750921 277.445312,24.687613 
	C280.009705,25.941063 284.075958,26.608358 283.173798,31.323057 
	C283.079407,31.816324 284.540039,32.607712 285.279907,33.259956 
	C292.756836,39.851376 300.190033,46.493809 307.759644,52.976994 
	C308.855652,53.915684 310.605957,54.090385 312.053497,54.618626 
	C312.518921,54.063572 312.984314,53.508522 313.449738,52.953468 
	C319.311859,62.396950 325.257324,71.790955 330.929871,81.346962 
	C331.632965,82.531448 330.823761,84.577301 330.832428,86.223381 
	C330.837982,87.278442 330.917114,88.372643 331.204468,89.380547 
	C333.889557,98.799454 336.534180,108.232216 339.434784,117.585220 
	C339.956207,119.266647 341.677734,120.548393 342.686066,122.116943 
	C343.261719,123.012383 343.858826,124.113441 343.861786,125.123634 
	C343.891571,135.259048 343.895813,145.397476 343.617310,155.527054 
	C343.583771,156.748245 341.764191,157.873810 340.906097,159.134674 
	C340.301544,160.022980 339.716949,161.017853 339.480103,162.047195 
	C338.473969,166.419647 337.600922,170.822723 336.524536,175.598587 
z"/>
<path fill="#303808" opacity="1.000000" stroke="none" 
	d="
M212.613953,305.344666 
	C214.343216,307.970856 215.862793,310.301208 217.515915,312.836395 
	C219.309723,307.241455 218.688873,305.766541 215.791626,300.625336 
	C214.642776,298.586731 215.354156,295.499756 215.200485,292.541382 
	C221.705673,292.541382 227.766266,292.541382 234.195221,292.541382 
	C233.809189,295.899078 236.734344,299.891022 231.516281,302.136169 
	C230.945465,302.381805 231.128250,304.601868 231.124420,305.906616 
	C231.096085,315.550323 231.109070,325.194122 231.109070,335.539856 
	C226.272995,335.539856 221.665939,335.768005 217.109543,335.388275 
	C215.886475,335.286316 214.579575,333.492065 213.718140,332.202759 
	C209.321518,325.622223 205.058228,318.952606 199.980072,311.130920 
	C199.980072,316.877502 198.213516,322.959442 200.392563,325.194275 
	C203.692032,328.578156 202.414673,331.512207 203.056320,335.151855 
	C196.583206,335.151855 190.393387,335.151855 183.818176,335.151855 
	C184.770233,331.993622 181.187576,327.787750 186.626129,325.991699 
	C186.572617,317.916046 186.519119,309.840363 186.465622,301.764709 
	C181.179108,299.811859 185.116608,295.668457 183.284042,292.214752 
	C190.252914,292.214752 196.215088,292.088959 202.163132,292.322388 
	C203.332794,292.368286 204.763763,293.573517 205.529968,294.636414 
	C207.959885,298.007385 210.132294,301.564026 212.613953,305.344666 
z"/>
<path fill="#323A0B" opacity="1.000000" stroke="none" 
	d="
M100.981346,331.346893 
	C101.292000,334.484863 100.097343,335.844208 96.737808,335.638092 
	C92.457893,335.375519 88.149658,335.574493 83.264694,335.574493 
	C83.264694,331.009644 83.343674,326.902100 83.243324,322.798920 
	C83.134789,318.361237 82.314323,317.739136 77.115295,317.910126 
	C77.802567,321.154266 74.716362,325.241089 80.257309,327.402954 
	C81.259605,327.794037 80.654556,332.304779 80.809425,335.253479 
	C73.147499,335.253479 65.925812,335.253479 58.355976,335.253479 
	C58.969109,331.763306 56.193844,327.790436 61.080147,325.666748 
	C61.488041,325.489502 61.502377,324.144928 61.506382,323.341705 
	C61.537937,317.012634 61.538460,310.683228 61.501511,304.354218 
	C61.496819,303.550964 61.444733,302.197113 61.035503,302.030701 
	C55.900566,299.942780 59.113804,295.922546 58.314411,292.358032 
	C68.371078,292.358032 77.988800,292.099457 87.582329,292.468964 
	C92.260704,292.649170 96.392448,294.872009 97.847069,299.863739 
	C99.542480,305.681824 98.921890,311.097717 94.716957,314.577209 
	C96.893654,319.811310 98.889595,324.610748 100.956009,329.934387 
	C101.011436,330.754669 100.996391,331.050781 100.981346,331.346893 
M83.087662,308.324402 
	C83.183563,301.387329 82.630112,300.784882 77.247589,301.976196 
	C77.247589,305.020660 77.247589,308.065125 77.247589,312.336487 
	C79.637749,311.022278 81.285637,310.116180 83.087662,308.324402 
z"/>
<path fill="#2F3707" opacity="1.000000" stroke="none" 
	d="
M338.093903,328.314850 
	C341.086761,325.660126 341.261017,322.232391 341.062103,318.538757 
	C340.838501,314.386017 341.087585,310.209869 340.976562,306.048035 
	C340.924866,304.110291 341.609161,302.235840 338.781219,300.711060 
	C337.408569,299.970917 337.977631,295.629547 337.625183,292.547058 
	C348.090698,292.547058 358.026550,292.277893 367.936493,292.667236 
	C372.494293,292.846313 376.181335,295.423157 377.431854,300.246948 
	C378.905853,305.932831 378.342957,311.171387 373.588196,315.014069 
	C378.312286,320.966949 380.421143,327.598328 380.211182,335.335754 
	C374.327209,335.335754 368.892731,335.335754 362.892181,335.335754 
	C362.892181,331.032990 362.865021,326.924377 362.899780,322.816284 
	C362.934326,318.735626 360.954010,317.182373 356.542908,317.819153 
	C357.449310,321.042969 353.916687,324.886658 359.416565,327.140015 
	C360.576141,327.615112 360.019958,332.278015 360.334869,335.949982 
	C352.469727,335.510132 345.280945,335.108093 338.056519,333.933441 
	C338.045197,331.545502 338.069550,329.930176 338.093903,328.314850 
M362.356445,309.542633 
	C363.531464,302.381531 362.630981,301.065338 356.668213,301.617584 
	C356.668213,304.770111 356.668213,307.941681 356.668213,311.941406 
	C358.803680,311.255157 360.397430,310.742981 362.356445,309.542633 
z"/>
<path fill="#303809" opacity="1.000000" stroke="none" 
	d="
M51.700222,333.635376 
	C43.831501,336.601349 36.150791,337.578400 28.311447,335.607239 
	C26.099779,335.051117 23.857130,334.080048 21.992607,332.778137 
	C15.215470,328.045868 12.480663,316.134979 15.421272,305.165192 
	C17.660112,296.813324 23.005440,292.313904 32.312237,291.372192 
	C35.432274,291.056549 38.711422,290.970764 41.764465,291.566254 
	C55.591587,294.263306 53.734478,292.586517 53.098072,307.056183 
	C48.858093,307.056183 44.597019,307.056183 40.229004,307.056183 
	C39.870708,305.720551 39.864941,303.991974 39.007805,302.996277 
	C38.192482,302.049164 36.320538,301.228485 35.217529,301.516724 
	C33.930080,301.853210 32.072441,303.409790 32.020592,304.510437 
	C31.723442,310.817841 31.734299,317.154816 32.053005,323.460968 
	C32.104965,324.489136 34.104706,325.966858 35.400650,326.216339 
	C36.500446,326.428131 38.157471,325.406647 39.007866,324.438751 
	C39.350147,324.049164 38.018585,322.387268 37.765881,321.234894 
	C37.257736,318.917572 36.967266,316.552551 36.509739,313.730896 
	C43.325378,313.730896 49.511692,313.730896 57.085648,313.730896 
	C55.885212,316.895508 54.743382,319.475372 53.951683,322.158539 
	C53.496750,323.700348 53.712280,325.426941 53.441086,327.039246 
	C53.077236,329.202362 52.534584,331.335388 51.700222,333.635376 
z"/>
<path fill="#323A0B" opacity="1.000000" stroke="none" 
	d="
M101.452759,331.741699 
	C100.996391,331.050781 101.011436,330.754669 101.004181,330.503662 
	C107.469429,326.335968 106.120590,319.737854 106.111168,313.572296 
	C106.105331,309.750793 107.490219,304.088409 105.566040,302.495483 
	C101.688171,299.285187 103.665283,296.097900 102.996590,292.546692 
	C115.492264,292.546692 127.732277,292.546692 140.354218,292.546692 
	C140.354218,297.885010 140.354218,303.295471 140.354218,309.040222 
	C136.579056,309.040222 132.674789,309.040222 128.522125,309.040222 
	C128.335831,306.493195 128.159470,304.081940 127.971115,301.506744 
	C125.906670,301.506744 124.135963,301.506744 122.048866,301.506744 
	C122.048866,304.195282 122.048866,306.795135 122.048866,309.842560 
	C123.196823,310.087189 124.557365,310.377136 126.233475,310.734314 
	C126.321022,312.343018 126.408241,313.945679 126.511108,315.835876 
	C124.948837,316.209564 123.577644,316.537567 121.974663,316.920990 
	C121.974663,319.842896 121.974663,322.776306 121.974663,326.062927 
	C123.891418,326.062927 125.769913,326.062927 127.993797,326.062927 
	C128.167130,323.682770 128.341949,321.282166 128.534592,318.636658 
	C132.559387,318.636658 136.308014,318.636658 140.395966,318.636658 
	C140.395966,324.169678 140.395966,329.550293 140.395966,335.527832 
	C128.527664,335.527832 116.756538,335.613159 104.991699,335.380463 
	C103.948219,335.359833 102.945717,333.266968 101.452759,331.741699 
z"/>
<path fill="#2F3708" opacity="1.000000" stroke="none" 
	d="
M337.622070,328.356506 
	C338.069550,329.930176 338.045197,331.545502 338.057861,333.451660 
	C330.463531,334.609100 322.832184,335.475708 314.475525,336.424713 
	C315.363403,332.007629 312.372314,328.283112 316.873688,325.985748 
	C317.151123,325.844147 317.377197,324.929199 317.200531,324.692566 
	C316.593872,323.880066 315.774994,322.579529 315.077393,322.604218 
	C313.085968,322.674713 311.114441,323.306091 309.135071,323.716827 
	C309.651794,324.663483 310.211884,325.589630 310.672913,326.562683 
	C311.123108,327.512878 311.709625,328.486572 311.813538,329.493561 
	C311.998810,331.289062 311.865631,333.117432 311.865631,335.248627 
	C305.504150,335.248627 299.441895,335.248627 291.766357,335.248627 
	C293.249847,331.311707 294.647522,328.133240 295.645020,324.833801 
	C297.229828,319.591614 298.543396,314.267609 299.979462,308.980286 
	C301.455811,303.544739 302.941528,298.111694 304.548523,292.217834 
	C310.547577,292.217834 316.504547,292.064728 322.438416,292.366302 
	C323.445435,292.417480 324.852814,294.275238 325.225769,295.547394 
	C327.653564,303.828857 329.622559,312.250427 332.238556,320.468018 
	C333.153259,323.341370 335.472443,325.767670 337.622070,328.356506 
M312.005768,308.731537 
	C311.576050,311.118774 311.146362,313.506012 310.658325,316.217072 
	C312.469604,316.217072 313.849213,316.217072 315.682007,316.217072 
	C314.962921,312.659973 314.316345,309.461456 313.403259,304.944641 
	C312.599365,306.836090 312.362305,307.393799 312.005768,308.731537 
z"/>
<path fill="#313809" opacity="1.000000" stroke="none" 
	d="
M150.194672,292.205872 
	C160.618149,292.205872 170.567337,292.205872 180.811859,292.205872 
	C180.811859,298.036224 180.811859,303.447144 180.811859,309.112946 
	C177.014404,309.112946 173.242462,309.112946 169.169647,309.112946 
	C168.989853,306.639496 168.814713,304.230164 168.621658,301.574280 
	C166.497772,301.574280 164.571014,301.574280 162.377258,301.574280 
	C162.377258,304.315155 162.377258,306.922974 162.377258,309.914795 
	C163.676971,310.144501 165.067154,310.390198 166.758835,310.689209 
	C166.851746,312.320618 166.942719,313.917908 167.055283,315.894196 
	C165.393280,316.244385 163.880478,316.563141 162.352539,316.885071 
	C162.352539,320.037445 162.352539,322.978088 162.352539,326.167267 
	C164.510880,326.167267 166.429199,326.167267 168.678314,326.167267 
	C168.804031,323.729706 168.921478,321.452576 169.059769,318.771179 
	C172.977463,318.771179 176.820847,318.771179 180.849518,318.771179 
	C180.849518,324.306213 180.849518,329.707977 180.849518,335.294556 
	C179.804153,335.402740 178.999023,335.557526 178.193665,335.558655 
	C166.894180,335.574524 155.594681,335.569397 143.792770,335.569397 
	C144.269547,331.953400 141.076462,327.929199 146.424301,325.698364 
	C146.797073,325.542847 146.745056,324.167694 146.748138,323.359192 
	C146.772141,317.035248 146.774811,310.711121 146.744293,304.387238 
	C146.740433,303.587158 146.736359,302.236664 146.343246,302.072418 
	C141.390137,300.002686 144.298080,296.008240 143.510254,292.205872 
	C145.870682,292.205872 147.795532,292.205872 150.194672,292.205872 
z"/>
<path fill="#31390A" opacity="1.000000" stroke="none" 
	d="
M270.568665,325.284668 
	C276.328064,326.983093 276.430756,326.876709 277.397491,318.631256 
	C281.454193,318.631256 285.544678,318.631256 290.230164,318.631256 
	C290.230164,322.705933 290.464142,326.667053 290.093231,330.570770 
	C289.975891,331.805481 288.466522,333.432007 287.211273,333.948547 
	C279.743958,337.020966 272.041473,337.571716 264.263428,335.130493 
	C262.854919,334.688446 261.489899,333.955688 260.257874,333.129028 
	C253.404343,328.530426 250.454178,317.015381 253.152878,305.685425 
	C255.147369,297.311951 260.533020,292.095367 269.651062,291.539520 
	C275.155273,291.204010 280.801270,292.570679 286.329193,293.496826 
	C289.332825,294.000000 290.604370,296.086853 290.301819,299.324219 
	C290.010223,302.444275 290.238708,305.612976 290.238708,309.060242 
	C285.841156,309.060242 281.757660,309.060242 277.274841,309.060242 
	C277.160126,307.522400 277.502075,305.676727 276.796631,304.418091 
	C276.058258,303.100769 274.377319,301.707916 272.986542,301.569153 
	C272.034790,301.474182 269.975555,303.451904 269.953827,304.533966 
	C269.817230,311.330750 270.113342,318.136230 270.568665,325.284668 
z"/>
<path fill="#333A0B" opacity="1.000000" stroke="none" 
	d="
M382.999695,298.963379 
	C382.999695,296.553040 382.999695,294.608887 382.999695,292.436340 
	C394.651886,292.436340 405.758148,292.436340 417.170624,292.436340 
	C418.214508,296.326172 418.092468,299.938354 415.623718,303.580261 
	C410.789307,310.711975 406.255005,318.047119 400.864197,326.437927 
	C404.200256,325.812775 407.147766,328.478516 408.015228,323.567810 
	C408.121185,322.967926 410.473175,322.562286 411.819641,322.432007 
	C413.783875,322.241943 415.780182,322.383209 418.116821,322.383209 
	C418.116821,326.745087 418.116821,330.809998 418.116821,335.230591 
	C406.239624,335.230591 394.370728,335.230591 380.838074,335.230591 
	C382.454712,330.642365 383.285736,326.471130 385.291351,322.973480 
	C389.322388,315.943695 393.994019,309.281250 398.401306,302.467194 
	C397.998779,302.005127 397.596252,301.543060 397.193726,301.080994 
	C395.679718,302.210297 394.165680,303.339630 391.804688,305.100708 
	C389.907104,305.100708 386.618622,305.100708 382.999695,305.100708 
	C382.999695,303.050568 382.999695,301.240082 382.999695,298.963379 
z"/>
<path fill="#02B491" opacity="1.000000" stroke="none" 
	d="
M338.439453,204.983582 
	C332.128296,204.232651 329.261230,200.162430 331.195038,194.271591 
	C331.830261,192.336533 334.186890,190.052521 336.056396,189.743530 
	C337.404205,189.520737 339.430847,192.152908 340.799347,193.805862 
	C341.545349,194.707016 341.551147,196.220963 342.029541,197.820618 
	C341.034149,200.406601 339.899994,202.630524 338.439453,204.983582 
z"/>
<path fill="#31592E" opacity="1.000000" stroke="none" 
	d="
M83.889175,179.982269 
	C84.627724,179.560043 85.036598,179.352859 85.643280,179.014069 
	C86.600410,179.442886 87.359749,180.003296 89.044205,181.246490 
	C84.615448,182.574738 80.756798,183.731995 76.523056,184.936768 
	C76.730782,180.465973 81.093765,181.800385 83.889175,179.982269 
z"/>
<path fill="#FBFDFD" opacity="1.000000" stroke="none" 
	d="
M137.086517,107.775002 
	C143.473053,89.847557 155.579498,76.438225 172.011551,67.193497 
	C220.963516,39.652924 281.411957,66.822845 293.600250,121.719246 
	C295.964813,132.369263 296.001526,143.162491 293.789764,154.319183 
	C289.030121,153.822372 284.318329,152.915482 279.257202,151.474075 
	C279.168182,148.966125 279.472382,146.997345 279.680908,145.018478 
	C280.440430,137.809860 277.158173,134.111862 269.740356,133.869385 
	C268.254486,133.820801 266.665314,133.733002 265.286133,134.172623 
	C259.289520,136.084106 253.352982,138.183899 247.394608,140.215271 
	C245.444809,136.400467 243.261047,132.683899 241.607162,128.744843 
	C239.735809,124.287781 236.613693,121.997147 231.893127,121.456055 
	C227.458481,120.947731 223.049683,120.213936 218.369934,118.965485 
	C217.859299,115.368080 216.496002,112.669098 213.362488,113.259575 
	C211.328079,113.642937 209.691422,116.137062 207.876556,117.685463 
	C204.040070,117.262741 200.203583,116.840012 196.246002,115.946365 
	C198.293869,112.070320 201.738022,108.874367 202.338745,105.212006 
	C203.286331,99.435059 202.889053,93.254791 201.959259,87.420837 
	C201.397491,83.896019 199.147430,80.394066 196.871429,77.498474 
	C195.823776,76.165634 192.592041,75.380684 190.866364,75.939590 
	C179.777771,79.530899 170.274734,85.721611 162.654205,94.642845 
	C158.245316,99.804245 158.695236,104.649658 163.974503,109.176155 
	C164.971191,110.030731 165.952530,110.903229 166.940964,111.767441 
	C157.138687,110.471176 147.336411,109.174904 137.086517,107.775002 
M243.339935,118.756897 
	C248.084366,117.208366 253.229034,116.351341 257.454254,113.905777 
	C261.248199,111.709816 264.284637,107.971642 267.102875,104.469315 
	C267.921661,103.451759 267.469269,100.462746 266.530426,99.131393 
	C259.761963,89.533096 250.842316,82.473389 239.999405,77.924202 
	C233.463455,75.182022 229.665710,76.720001 226.744888,83.279991 
	C226.081207,84.770554 225.596939,86.455681 225.523361,88.073677 
	C225.258575,93.894516 224.945389,99.733200 225.130325,105.549881 
	C225.430695,114.997261 233.097549,120.734520 243.339935,118.756897 
z"/>
<path fill="#02B491" opacity="1.000000" stroke="none" 
	d="
M191.955017,225.351669 
	C194.612762,236.615967 193.687958,246.880936 186.809982,256.114563 
	C176.969360,269.325531 159.882675,267.696930 153.152802,252.668472 
	C148.186096,241.577408 149.111618,230.545486 155.644577,220.291733 
	C160.103409,213.293396 166.453094,208.755096 175.152451,209.693390 
	C184.200607,210.669312 188.843033,217.063889 191.955017,225.351669 
M160.950974,233.309402 
	C160.476227,236.404831 160.001480,239.500259 159.526733,242.595688 
	C160.041275,242.764435 160.555832,242.933182 161.070374,243.101913 
	C163.086502,241.419052 165.102631,239.736176 167.471512,237.758850 
	C165.115341,236.059982 163.388428,234.814835 160.950974,233.309402 
M184.112808,224.577164 
	C183.682327,228.922195 185.227112,230.909470 190.743713,229.160751 
	C189.182526,226.043976 187.754807,223.193665 186.327072,220.343338 
	C185.886826,220.455017 185.446564,220.566696 185.006302,220.678375 
	C184.713791,221.695923 184.421265,222.713470 184.112808,224.577164 
M184.585373,246.074646 
	C184.585373,247.988419 184.585373,249.902176 184.585373,251.815948 
	C185.177689,251.894836 185.770020,251.973724 186.362335,252.052612 
	C187.729126,249.186417 189.095901,246.320206 190.462692,243.454010 
	C189.967117,243.054169 189.471542,242.654327 188.975983,242.254486 
	C187.569519,243.269806 186.163055,244.285126 184.585373,246.074646 
M172.913055,232.381638 
	C172.270065,231.876602 171.645416,230.978119 170.980331,230.947098 
	C169.524185,230.879211 168.047531,231.251312 166.579254,231.443695 
	C167.574585,232.786057 168.298721,234.623413 169.629929,235.352692 
	C171.540283,236.399231 173.712387,236.367828 172.913055,232.381638 
M169.991943,255.490829 
	C171.116821,255.935852 172.241699,256.380859 174.045380,257.094452 
	C173.698608,254.258682 173.448349,252.212265 173.180908,250.025330 
	C167.723999,252.285751 167.723999,252.285751 169.991943,255.490829 
M173.171738,220.656143 
	C169.920578,216.721985 169.164383,221.478271 165.931442,222.231796 
	C168.835541,223.746399 170.626129,224.680252 172.785919,225.806671 
	C172.944916,223.987778 173.055893,222.718170 173.171738,220.656143 
M169.432266,244.898209 
	C172.448837,244.084808 173.920853,242.418640 172.706833,238.926025 
	C169.117996,239.508728 166.880188,240.685074 169.432266,244.898209 
z"/>
<path fill="#04BA98" opacity="1.000000" stroke="none" 
	d="
M167.342758,111.874237 
	C165.952530,110.903229 164.971191,110.030731 163.974503,109.176155 
	C158.695236,104.649658 158.245316,99.804245 162.654205,94.642845 
	C170.274734,85.721611 179.777771,79.530899 190.866364,75.939590 
	C192.592041,75.380684 195.823776,76.165634 196.871429,77.498474 
	C199.147430,80.394066 201.397491,83.896019 201.959259,87.420837 
	C202.889053,93.254791 203.286331,99.435059 202.338745,105.212006 
	C201.738022,108.874367 198.293869,112.070320 195.892822,115.737144 
	C186.355347,114.659576 177.049942,113.320305 167.342758,111.874237 
z"/>
<path fill="#02B390" opacity="1.000000" stroke="none" 
	d="
M141.931747,167.836884 
	C139.154755,168.582138 139.065430,166.774857 138.833954,164.786133 
	C136.929993,148.427841 134.959702,132.077255 133.005203,115.724838 
	C132.768311,113.742836 132.505692,111.763901 132.145050,109.385757 
	C132.035095,108.987961 132.022278,109.032303 132.001526,109.043167 
	C135.803482,107.899200 136.515381,110.225502 136.788940,113.235893 
	C137.450195,120.513184 138.176132,127.784752 138.905212,135.055695 
	C139.822784,144.206345 141.512787,145.843658 150.968353,146.804291 
	C160.721024,147.795135 170.475906,148.764526 180.226212,149.777985 
	C181.134567,149.872391 182.016983,150.216309 183.132385,151.546021 
	C181.813965,152.048660 180.535477,152.763687 179.170792,153.020203 
	C168.730957,154.982468 158.280029,156.887589 147.819824,158.738632 
	C144.189194,159.381119 142.204391,161.353928 142.052353,165.784546 
	C142.008667,166.938293 141.970200,167.387589 141.931747,167.836884 
z"/>
<path fill="#05B896" opacity="1.000000" stroke="none" 
	d="
M247.454529,140.601868 
	C253.352982,138.183899 259.289520,136.084106 265.286133,134.172623 
	C266.665314,133.733002 268.254486,133.820801 269.740356,133.869385 
	C277.158173,134.111862 280.440430,137.809860 279.680908,145.018478 
	C279.472382,146.997345 279.168182,148.966125 278.845215,151.343750 
	C270.130188,150.709595 261.379700,150.131058 252.892090,148.320267 
	C250.678879,147.848099 249.284775,143.536606 247.454529,140.601868 
z"/>
<path fill="#01B693" opacity="1.000000" stroke="none" 
	d="
M230.577118,172.943298 
	C230.422073,169.438232 229.816116,166.154236 230.564743,163.215256 
	C232.069336,157.308380 238.724457,155.873611 243.198135,160.142761 
	C247.312805,164.069321 248.358810,170.790192 245.635559,175.804001 
	C242.290543,181.962555 236.760727,182.419922 232.621613,176.824875 
	C231.841125,175.769852 231.358841,174.494247 230.577118,172.943298 
z"/>
<path fill="#02B591" opacity="1.000000" stroke="none" 
	d="
M98.784744,196.280594 
	C100.553818,204.915863 102.237946,213.139435 103.924225,221.373520 
	C96.309700,222.582214 96.356758,222.572266 94.953850,215.940033 
	C92.964661,206.536255 90.897820,197.148895 88.869415,187.778763 
	C94.956100,185.573776 96.751884,186.536011 97.942169,192.472488 
	C98.170158,193.609543 98.446022,194.737000 98.784744,196.280594 
z"/>
<path fill="#03B08C" opacity="1.000000" stroke="none" 
	d="
M83.628784,245.066589 
	C82.915024,247.944870 82.576843,250.989777 81.392632,253.659363 
	C79.905403,257.012054 77.016022,257.004913 75.673950,253.565186 
	C71.787712,243.604752 71.645691,233.424957 75.563148,223.443146 
	C76.921974,219.980804 80.113075,219.977081 81.089104,223.567886 
	C82.627724,229.228424 82.971848,235.213638 83.669495,241.497894 
	C83.517372,241.934387 83.495605,241.942429 83.102158,241.905304 
	C82.448654,241.902313 82.188599,241.936447 81.665840,241.769821 
	C79.969368,240.337692 78.535606,239.106354 76.623390,237.464081 
	C76.623390,240.382584 76.623390,242.056915 76.623390,244.311111 
	C78.421913,243.798859 79.780479,243.411911 81.151001,243.327057 
	C81.461823,244.096893 81.760689,244.564621 82.321136,245.048050 
	C82.931412,245.064697 83.280098,245.065643 83.628784,245.066589 
M79.611206,236.943237 
	C80.409546,237.281418 81.207893,237.619583 82.006241,237.957764 
	C82.115456,237.423630 82.224663,236.889481 82.333878,236.355347 
	C81.329178,236.355347 80.324486,236.355347 79.611206,236.943237 
z"/>
<path fill="#02B390" opacity="1.000000" stroke="none" 
	d="
M94.988556,178.807892 
	C92.649666,178.709732 92.163712,177.926987 92.649887,175.371140 
	C94.090080,167.799835 95.123398,160.142166 96.043465,152.485550 
	C96.387711,149.620789 95.864326,146.662552 95.944199,143.752655 
	C96.058495,139.588638 98.545158,137.631561 103.675606,136.839920 
	C103.089912,142.393082 102.436798,147.469086 102.055763,152.565414 
	C101.771507,156.367218 102.149811,160.238251 101.630859,163.995270 
	C101.328453,166.184631 99.840088,168.210175 98.418045,170.732452 
	C98.246696,172.105621 98.542610,173.055725 98.838516,174.005844 
	C98.592804,174.501053 98.347084,174.996277 97.603317,175.750031 
	C96.399704,176.941681 95.694130,177.874786 94.988556,178.807892 
M96.138863,163.483368 
	C96.528534,163.826736 96.918205,164.170120 97.307884,164.513504 
	C97.449425,163.968994 97.590965,163.424484 97.732498,162.879974 
	C97.242050,162.881027 96.751595,162.882065 96.138863,163.483368 
z"/>
<path fill="#02B591" opacity="1.000000" stroke="none" 
	d="
M309.961334,165.313171 
	C317.983246,168.999374 320.431610,177.770325 315.187469,183.649124 
	C314.177124,184.781708 310.617554,185.548935 310.388458,185.172699 
	C308.241547,181.647385 305.949982,177.995514 304.929657,174.061371 
	C303.978882,170.395477 305.321930,166.781342 309.961334,165.313171 
z"/>
<path fill="#02B491" opacity="1.000000" stroke="none" 
	d="
M236.976013,190.881104 
	C238.504349,187.972046 239.609253,184.925247 241.770096,183.204498 
	C242.786972,182.394760 247.021591,183.517914 247.711609,184.847794 
	C249.115616,187.553741 249.946655,191.161438 249.371338,194.073013 
	C249.000473,195.949844 245.742020,198.494812 243.719849,198.548203 
	C239.536728,198.658615 237.479980,195.364807 236.976013,190.881104 
z"/>
<path fill="#04AD88" opacity="1.000000" stroke="none" 
	d="
M263.891174,171.041977 
	C263.893646,180.135284 263.893646,188.744247 263.893646,197.353226 
	C263.182343,197.560715 262.471069,197.768204 261.759766,197.975677 
	C260.944305,197.148056 259.429504,196.329529 259.418610,195.491455 
	C259.264130,183.586868 259.313354,171.679611 260.079102,159.690933 
	C265.965118,162.076920 262.927094,166.928787 263.891174,171.041977 
z"/>
<path fill="#04AB87" opacity="1.000000" stroke="none" 
	d="
M296.345764,195.013428 
	C296.374908,184.175354 296.374908,173.767593 296.374908,163.359848 
	C297.064728,163.117645 297.754547,162.875443 298.444397,162.633240 
	C299.226379,163.766037 300.694519,164.905472 300.683624,166.030579 
	C300.580963,176.629700 300.255859,187.227463 299.874084,197.821259 
	C299.849396,198.506516 298.826874,199.155823 298.268524,199.821869 
	C297.617889,198.362488 296.967224,196.903107 296.345764,195.013428 
z"/>
<path fill="#04AD89" opacity="1.000000" stroke="none" 
	d="
M282.102753,164.374954 
	C282.813812,163.245972 283.524963,162.576004 284.236084,161.906036 
	C284.796356,162.961975 285.841125,164.018494 285.839905,165.073807 
	C285.830505,173.197571 285.670715,181.322586 285.442169,189.443954 
	C285.355103,192.538300 284.965729,195.624161 284.714142,198.713882 
	C284.129547,198.836670 283.544922,198.959457 282.960327,199.082245 
	C282.581299,197.617157 281.876801,196.152328 281.875732,194.686966 
	C281.868500,184.736023 282.009644,174.784973 282.102753,164.374954 
z"/>
<path fill="#03AF8B" opacity="1.000000" stroke="none" 
	d="
M278.224213,162.925232 
	C279.644592,175.222855 277.458588,186.894135 277.797852,198.703476 
	C277.044617,198.778610 276.291382,198.853745 275.538147,198.928879 
	C275.068634,197.617630 274.179321,196.301041 274.195953,194.995987 
	C274.329193,184.533447 274.598236,174.072052 274.908447,163.612762 
	C274.993469,160.745529 275.918793,159.521622 278.224213,162.925232 
z"/>
<path fill="#03B08C" opacity="1.000000" stroke="none" 
	d="
M267.114990,186.067215 
	C267.170990,178.453125 267.120239,171.319122 267.345184,164.193848 
	C267.386841,162.874680 268.540924,161.590637 269.181580,160.290405 
	C269.793915,161.439636 270.948639,162.595856 270.933899,163.736984 
	C270.798615,174.206024 270.476135,184.672913 270.154419,195.138779 
	C270.126068,196.061111 269.716400,196.971710 269.184662,199.066116 
	C265.477966,194.636215 267.643402,190.338867 267.114990,186.067215 
z"/>
<path fill="#02B28E" opacity="1.000000" stroke="none" 
	d="
M255.789581,190.738098 
	C255.754684,191.704224 255.883118,192.270432 255.691345,192.690460 
	C255.025986,194.147827 254.249344,195.554382 253.515045,196.980270 
	C253.028229,195.566284 252.116486,194.150452 252.122589,192.738602 
	C252.167191,182.431915 252.359772,172.125092 252.629425,161.821533 
	C252.653473,160.902618 253.556091,160.006699 254.050659,159.100082 
	C254.725647,160.001617 255.980972,160.899796 255.986237,161.805206 
	C256.041168,171.293182 255.895935,180.782333 255.789581,190.738098 
z"/>
<path fill="#03B08C" opacity="1.000000" stroke="none" 
	d="
M289.317535,186.331604 
	C289.491760,179.386292 289.568237,172.904205 289.846069,166.430771 
	C289.906342,165.025711 290.688660,163.651611 291.138397,162.263260 
	C291.803619,163.684464 293.035400,165.102875 293.042389,166.527328 
	C293.089081,176.009979 292.910583,185.494720 292.706726,194.976654 
	C292.673737,196.509079 292.149506,198.030945 291.206604,199.552963 
	C287.488251,195.683563 289.816803,191.024414 289.317535,186.331604 
z"/>
<path fill="#10845C" opacity="1.000000" stroke="none" 
	d="
M217.981934,200.061981 
	C228.190704,200.633545 238.399490,201.205093 248.608261,201.776657 
	C248.578735,202.384842 248.549210,202.993027 248.519684,203.601227 
	C238.571472,203.029877 228.623276,202.458527 218.314285,201.350708 
	C217.962967,200.563507 217.972458,200.312744 217.981934,200.061981 
z"/>
<path fill="#099E78" opacity="1.000000" stroke="none" 
	d="
M110.826736,175.852539 
	C108.132042,176.344299 105.833199,176.732864 103.534348,177.121414 
	C103.378571,176.471985 103.222786,175.822556 103.067001,175.173126 
	C108.864990,173.470932 114.662979,171.768738 120.973373,169.916107 
	C119.629158,173.202377 119.629158,173.202377 110.826736,175.852539 
z"/>
<path fill="#05A984" opacity="1.000000" stroke="none" 
	d="
M112.197342,153.856354 
	C112.301804,150.973602 110.814545,147.054474 116.400421,149.187317 
	C115.843704,153.890762 115.296143,158.516815 114.748581,163.142853 
	C114.262466,163.136276 113.776352,163.129700 113.290237,163.123123 
	C112.934410,160.178970 112.578583,157.234833 112.197342,153.856354 
z"/>
<path fill="#10B492" opacity="1.000000" stroke="none" 
	d="
M208.279236,117.800888 
	C209.691422,116.137062 211.328079,113.642937 213.362488,113.259575 
	C216.496002,112.669098 217.859299,115.368080 218.050262,118.744186 
	C214.887421,118.729942 211.784668,118.323128 208.279236,117.800888 
z"/>
<path fill="#04AD88" opacity="1.000000" stroke="none" 
	d="
M128.116776,134.918610 
	C125.963196,135.258835 124.228569,135.604263 122.138359,136.020493 
	C122.069542,134.815628 121.982262,133.287460 121.842880,130.847046 
	C124.357109,130.847046 126.625168,130.595596 128.793152,130.952332 
	C129.889526,131.132736 130.804947,132.412933 131.802170,133.195892 
	C130.713348,133.771866 129.624542,134.347855 128.116776,134.918610 
z"/>
<path fill="#1B5F33" opacity="1.000000" stroke="none" 
	d="
M282.987335,204.035873 
	C293.880005,204.819733 304.772675,205.603607 315.665375,206.387482 
	C315.658905,206.638794 315.652466,206.890106 315.645996,207.141434 
	C304.964630,206.626923 294.283234,206.112411 283.297058,205.064972 
	C282.992279,204.532028 282.987335,204.035873 282.987335,204.035873 
z"/>
<path fill="#1B5F33" opacity="1.000000" stroke="none" 
	d="
M178.209747,162.948898 
	C171.747223,163.879852 165.652817,164.760330 158.739594,165.759109 
	C159.506592,164.418518 159.805023,163.336273 160.192642,163.303345 
	C166.250198,162.788376 172.319183,162.407211 178.386414,162.009018 
	C178.525772,161.999863 178.804169,162.164490 178.797775,162.224701 
	C178.773392,162.454483 178.658768,162.674667 178.209747,162.948898 
z"/>
<path fill="#0B9770" opacity="1.000000" stroke="none" 
	d="
M217.542542,200.010895 
	C217.972458,200.312744 217.962967,200.563507 217.940033,201.191696 
	C214.122864,201.423264 210.317291,201.313675 206.516006,201.120239 
	C203.360397,200.959686 199.993774,200.247375 199.384903,205.366486 
	C198.869263,198.813110 198.872284,198.752380 204.742859,199.044098 
	C208.867935,199.249084 212.983398,199.647659 217.542542,200.010895 
z"/>
<path fill="#176C42" opacity="1.000000" stroke="none" 
	d="
M282.532257,204.007477 
	C282.987335,204.035873 282.992279,204.532028 282.993408,204.780396 
	C276.562683,205.028778 270.130829,205.028778 263.699005,205.028778 
	C263.735260,204.317917 263.771515,203.607040 263.807770,202.896179 
	C269.897583,203.257141 275.987366,203.618103 282.532257,204.007477 
z"/>
<path fill="#0E8D65" opacity="1.000000" stroke="none" 
	d="
M142.358215,167.897720 
	C141.970200,167.387589 142.008667,166.938293 142.090668,166.152740 
	C146.775940,165.455734 151.417664,165.094971 156.059387,164.734207 
	C156.107010,165.141754 156.154633,165.549316 156.202240,165.956863 
	C151.729721,166.624100 147.257187,167.291336 142.358215,167.897720 
z"/>
<path fill="#04AD89" opacity="1.000000" stroke="none" 
	d="
M95.327835,178.849884 
	C95.694130,177.874786 96.399704,176.941681 97.449898,175.997925 
	C97.085388,176.955475 96.376259,177.923676 95.327835,178.849884 
z"/>
<path fill="#1B5F33" opacity="1.000000" stroke="none" 
	d="
M184.826385,161.960510 
	C183.680420,161.964401 182.880920,161.964401 182.081436,161.964401 
	C182.062607,161.754761 182.043777,161.545105 182.024948,161.335464 
	C182.555817,161.226395 183.086212,161.029388 183.617676,161.026428 
	C184.745728,161.020142 185.874359,161.114899 187.017181,161.691559 
	C186.402405,161.779907 185.787628,161.868256 184.826385,161.960510 
z"/>
<path fill="#04AD89" opacity="1.000000" stroke="none" 
	d="
M98.875328,173.624084 
	C98.542610,173.055725 98.246696,172.105621 98.239555,171.072632 
	C98.656265,171.740616 98.784195,172.491455 98.875328,173.624084 
z"/>
<path fill="#099E78" opacity="1.000000" stroke="none" 
	d="
M83.495605,241.942429 
	C83.495605,241.942429 83.517372,241.934387 83.510529,241.922043 
	C83.606964,242.702316 83.710251,243.494949 83.721161,244.677078 
	C83.280098,245.065643 82.931412,245.064697 82.514679,244.764420 
	C82.796288,243.624207 83.145950,242.783310 83.495605,241.942429 
z"/>
<path fill="#1E5629" opacity="1.000000" stroke="none" 
	d="
M85.545502,187.029541 
	C85.249550,187.390167 84.677032,187.704056 84.104515,188.017944 
	C84.008545,187.789017 83.912575,187.560089 83.816597,187.331146 
	C84.300713,187.215042 84.784821,187.098923 85.545502,187.029541 
z"/>
<path fill="#1E5629" opacity="1.000000" stroke="none" 
	d="
M77.712479,189.608124 
	C77.852028,189.432556 78.095169,189.406158 78.338318,189.379761 
	C78.164230,189.505600 77.990158,189.631454 77.712479,189.608124 
z"/>
<path fill="#1E5629" opacity="1.000000" stroke="none" 
	d="
M80.987793,188.211014 
	C81.110336,188.391129 81.051392,188.573303 80.992447,188.755478 
	C80.930389,188.574677 80.868340,188.393875 80.987793,188.211014 
z"/>
<path fill="#F1F1EE" opacity="1.000000" stroke="none" 
	d="
M83.010590,308.767273 
	C81.285637,310.116180 79.637749,311.022278 77.247589,312.336487 
	C77.247589,308.065125 77.247589,305.020660 77.249016,301.973450 
	C82.630112,300.784882 83.183563,301.387329 83.010590,308.767273 
z"/>
<path fill="#E4E5DF" opacity="1.000000" stroke="none" 
	d="
M362.173828,309.886719 
	C360.397430,310.742981 358.803680,311.255157 356.668213,311.941406 
	C356.668213,307.941681 356.668213,304.770111 356.668213,301.617584 
	C362.630981,301.065338 363.531464,302.381531 362.173828,309.886719 
z"/>
<path fill="#DEDFD8" opacity="1.000000" stroke="none" 
	d="
M312.065521,308.341553 
	C312.362305,307.393799 312.599365,306.836090 313.403259,304.944641 
	C314.316345,309.461456 314.962921,312.659973 315.682007,316.217072 
	C313.849213,316.217072 312.469604,316.217072 310.658325,316.217072 
	C311.146362,313.506012 311.576050,311.118774 312.065521,308.341553 
z"/>
<path fill="#04BB99" opacity="1.000000" stroke="none" 
	d="
M242.958435,118.849518 
	C233.097549,120.734520 225.430695,114.997261 225.130325,105.549881 
	C224.945389,99.733200 225.258575,93.894516 225.523361,88.073677 
	C225.596939,86.455681 226.081207,84.770554 226.744888,83.279991 
	C229.665710,76.720001 233.463455,75.182022 239.999405,77.924202 
	C250.842316,82.473389 259.761963,89.533096 266.530426,99.131393 
	C267.469269,100.462746 267.921661,103.451759 267.102875,104.469315 
	C264.284637,107.971642 261.248199,111.709816 257.454254,113.905777 
	C253.229034,116.351341 248.084366,117.208366 242.958435,118.849518 
z"/>
<path fill="#253D0D" opacity="1.000000" stroke="none" 
	d="
M161.306244,233.439545 
	C163.388428,234.814835 165.115341,236.059982 167.471512,237.758850 
	C165.102631,239.736176 163.086502,241.419052 161.070374,243.101913 
	C160.555832,242.933182 160.041275,242.764435 159.526733,242.595688 
	C160.001480,239.500259 160.476227,236.404831 161.306244,233.439545 
z"/>
<path fill="#244212" opacity="1.000000" stroke="none" 
	d="
M184.120789,224.154099 
	C184.421265,222.713470 184.713791,221.695923 185.006302,220.678375 
	C185.446564,220.566696 185.886826,220.455017 186.327072,220.343338 
	C187.754807,223.193665 189.182526,226.043976 190.743713,229.160751 
	C185.227112,230.909470 183.682327,228.922195 184.120789,224.154099 
z"/>
<path fill="#244212" opacity="1.000000" stroke="none" 
	d="
M184.670975,245.687546 
	C186.163055,244.285126 187.569519,243.269806 188.975983,242.254486 
	C189.471542,242.654327 189.967117,243.054169 190.462692,243.454010 
	C189.095901,246.320206 187.729126,249.186417 186.362335,252.052612 
	C185.770020,251.973724 185.177689,251.894836 184.585373,251.815948 
	C184.585373,249.902176 184.585373,247.988419 184.670975,245.687546 
z"/>
<path fill="#234617" opacity="1.000000" stroke="none" 
	d="
M173.074966,232.696396 
	C173.712387,236.367828 171.540283,236.399231 169.629929,235.352692 
	C168.298721,234.623413 167.574585,232.786057 166.579254,231.443695 
	C168.047531,231.251312 169.524185,230.879211 170.980331,230.947098 
	C171.645416,230.978119 172.270065,231.876602 173.074966,232.696396 
z"/>
<path fill="#22491B" opacity="1.000000" stroke="none" 
	d="
M169.667435,255.301682 
	C167.723999,252.285751 167.723999,252.285751 173.180908,250.025330 
	C173.448349,252.212265 173.698608,254.258682 174.045380,257.094452 
	C172.241699,256.380859 171.116821,255.935852 169.667435,255.301682 
z"/>
<path fill="#253D0D" opacity="1.000000" stroke="none" 
	d="
M173.169312,221.052368 
	C173.055893,222.718170 172.944916,223.987778 172.785919,225.806671 
	C170.626129,224.680252 168.835541,223.746399 165.931442,222.231796 
	C169.164383,221.478271 169.920578,216.721985 173.169312,221.052368 
z"/>
<path fill="#253D0D" opacity="1.000000" stroke="none" 
	d="
M169.051422,244.806763 
	C166.880188,240.685074 169.117996,239.508728 172.706833,238.926025 
	C173.920853,242.418640 172.448837,244.084808 169.051422,244.806763 
z"/>
<path fill="#099E78" opacity="1.000000" stroke="none" 
	d="
M81.139046,243.024963 
	C79.780479,243.411911 78.421913,243.798859 76.623390,244.311111 
	C76.623390,242.056915 76.623390,240.382584 76.623390,237.464081 
	C78.535606,239.106354 79.969368,240.337692 81.607071,241.994110 
	C81.675812,242.719604 81.451820,242.921539 81.139046,243.024963 
z"/>
<path fill="#099E78" opacity="1.000000" stroke="none" 
	d="
M79.465500,236.649292 
	C80.324486,236.355347 81.329178,236.355347 82.333878,236.355347 
	C82.224663,236.889481 82.115456,237.423630 82.006241,237.957764 
	C81.207893,237.619583 80.409546,237.281418 79.465500,236.649292 
z"/>
<path fill="#2A3303" opacity="1.000000" stroke="none" 
	d="
M81.151001,243.327072 
	C81.451820,242.921539 81.675812,242.719604 81.869774,242.194885 
	C82.188599,241.936447 82.448654,241.902313 83.102158,241.905304 
	C83.145950,242.783310 82.796288,243.624207 82.253090,244.748718 
	C81.760689,244.564621 81.461823,244.096893 81.151001,243.327072 
z"/>
<path fill="#04AD89" opacity="1.000000" stroke="none" 
	d="
M96.200005,163.183243 
	C96.751595,162.882065 97.242050,162.881027 97.732498,162.879974 
	C97.590965,163.424484 97.449425,163.968994 97.307877,164.513504 
	C96.918205,164.170120 96.528534,163.826736 96.200005,163.183243 
z"/>
</svg>