<?xml version="1.0" encoding="UTF-8"?>
<svg width="24" height="24" viewBox="0 0 24 24" fill="none" xmlns="http://www.w3.org/2000/svg" aria-label="WhatsApp">
  <defs>
    <linearGradient id="wa_g" x1="0" y1="0" x2="1" y2="1">
      <stop offset="0%" stop-color="#25D366"/>
      <stop offset="100%" stop-color="#1DA955"/>
    </linearGradient>
  </defs>
  <path d="M2.5 21.5l1.6-4.7A8.9 8.9 0 1112 21a8.8 8.8 0 01-4.5-1.2L2.5 21.5z" fill="url(#wa_g)"/>
  <path d="M15.6 13.4c-.2-.1-1.2-.6-1.4-.7-.2-.1-.3-.1-.5.1-.1.2-.6.7-.7.8-.1.1-.3.1-.5 0-.2-.1-.9-.3-1.7-1.1-.6-.6-1.1-1.3-1.2-1.5-.1-.2 0-.3.1-.5l.4-.5c.1-.1.1-.2.2-.4 0-.1 0-.3 0-.4s-.5-1.3-.7-1.7c-.2-.4-.4-.3-.5-.3h-.4c-.1 0-.4.1-.6.3-.2.2-.8.8-.8 2 0 1.2.9 2.4 1 2.6.1.2 1.8 2.7 4.3 3.7.6.2 1.1.4 1.4.5.6.2 1.2.2 1.7.1.5-.1 1.2-.5 1.4-1 .2-.5.2-1 .2-1.1 0-.1-.1-.2-.3-.3z" fill="#fff"/>
</svg>

